<?xml version="1.0" standalone="no"?>
<!DOCTYPE svg PUBLIC "-//W3C//DTD SVG 20010904//EN"
 "http://www.w3.org/TR/2001/REC-SVG-20010904/DTD/svg10.dtd">
<svg version="1.0" xmlns="http://www.w3.org/2000/svg"
 width="680.000000pt" height="680.000000pt" viewBox="0 0 680.000000 680.000000"
 preserveAspectRatio="xMidYMid meet">
<metadata>
Created by potrace 1.14, written by Peter Selinger 2001-2017
</metadata>
<g transform="translate(0.000000,680.000000) scale(0.100000,-0.100000)"
fill="#000000" stroke="none">
<path d="M3460 6667 l0 -138 -62 3 -63 3 -3 101 -3 101 -62 -22 -62 -23 -3
-80 -3 -80 -87 -7 c-184 -14 -417 -64 -657 -138 -296 -92 -638 -260 -883 -434
-250 -178 -535 -449 -698 -662 -76 -100 -233 -334 -273 -407 -182 -332 -330
-809 -367 -1176 l-7 -68 -71 0 -71 0 -17 -53 c-11 -32 -18 -84 -18 -127 l0
-73 165 7 c136 5 170 4 194 -8 47 -25 55 -70 17 -105 -23 -21 -27 -22 -200
-15 l-177 7 3 -129 3 -129 44 3 c25 2 63 1 86 -2 l41 -7 12 -96 c25 -199 91
-463 168 -671 51 -140 179 -399 266 -539 89 -142 249 -358 342 -461 37 -40 63
-78 60 -84 -4 -6 -3 -8 3 -5 13 8 66 -47 56 -58 -5 -4 -3 -5 3 -2 14 8 127
-106 117 -118 -5 -4 -2 -5 5 -1 7 5 38 -15 80 -52 85 -74 225 -176 369 -268
62 -39 109 -75 105 -79 -4 -5 -1 -5 6 -1 7 4 33 -5 60 -22 65 -40 241 -123
334 -158 68 -25 77 -31 72 -49 -6 -19 -6 -19 8 -1 13 16 16 17 29 4 7 -8 21
-13 31 -10 10 2 18 -1 18 -7 0 -6 -4 -12 -10 -12 -19 -3 -25 -5 -47 -17 -19
-11 -23 -10 -23 2 0 9 -6 13 -14 10 -11 -4 -14 1 -12 20 2 14 -1 23 -5 20 -5
-3 -9 0 -9 5 0 6 -8 11 -18 11 -10 0 -24 6 -31 13 -10 8 -12 9 -7 0 4 -7 -2
-17 -13 -22 -15 -8 -23 -7 -35 4 -18 18 -23 19 -23 2 0 -8 5 -14 11 -15 6 -1
20 -3 31 -4 28 -4 61 -25 53 -34 -4 -4 -14 -1 -23 6 -10 8 -15 9 -15 1 0 -6
-5 -11 -11 -11 -5 0 -7 4 -4 10 3 5 3 10 -2 11 -4 0 -16 2 -25 4 -11 2 -18 -3
-18 -11 0 -9 4 -13 9 -10 5 3 15 -2 22 -11 10 -12 10 -15 1 -9 -16 9 -52 -2
-52 -17 0 -7 3 -8 10 -1 5 5 27 8 49 6 30 -3 38 -8 34 -19 -5 -12 -7 -12 -14
-2 -4 8 -10 11 -13 8 -3 -2 -1 -11 5 -19 8 -13 11 -12 23 3 8 10 23 17 33 15
19 -4 32 -38 13 -38 -6 0 -8 5 -5 10 3 6 -1 10 -9 10 -9 0 -16 -4 -16 -10 0
-5 1 -10 3 -10 1 0 17 -4 35 -9 30 -9 32 -8 27 10 -4 11 -3 18 2 17 14 -4 53
13 53 23 0 11 -17 12 -24 0 -5 -7 -23 -8 -59 -2 -10 1 18 31 29 31 3 0 1 -7
-6 -15 -15 -18 -10 -18 24 -5 31 11 57 4 50 -15 -3 -7 8 -21 25 -31 16 -10 28
-22 25 -26 -3 -5 -13 -3 -21 4 -19 16 -64 18 -57 3 3 -5 -2 -1 -10 9 -16 20
-16 20 -16 -1 0 -14 8 -22 25 -25 13 -3 22 -2 20 2 -3 5 1 10 9 13 9 4 12 0 9
-13 -4 -15 1 -19 27 -18 20 1 27 4 18 9 -8 5 -9 9 -2 9 6 0 12 11 12 25 0 14
-4 25 -8 25 -10 0 -7 26 3 36 4 4 7 -2 7 -13 0 -12 8 -24 17 -27 15 -6 15 -9
3 -17 -12 -9 -12 -10 3 -5 12 4 20 -2 27 -19 13 -35 21 -31 16 8 -4 32 -2 33
30 34 19 1 37 -3 40 -9 3 -5 -2 -8 -11 -6 -10 2 -20 -2 -22 -8 -2 -7 8 -9 27
-6 16 2 27 8 24 13 -3 5 0 9 7 9 19 0 1 13 -23 17 -12 2 -28 9 -35 15 -11 9
-17 8 -24 -3 -6 -9 -12 -10 -16 -4 -13 17 -48 41 -39 28 12 -21 -5 -15 -27 10
-15 16 -18 17 -14 5 4 -12 1 -18 -8 -18 -8 0 -15 -4 -15 -10 0 -5 6 -10 13
-10 8 0 7 -4 -3 -10 -22 -14 -33 -12 -26 5 3 9 -1 18 -9 21 -21 8 -19 23 3 20
9 -2 22 4 28 12 8 11 16 12 30 5 10 -6 43 -16 72 -23 28 -6 52 -16 52 -21 0
-4 6 -6 12 -4 19 6 135 -28 136 -40 1 -18 36 -32 62 -25 23 8 23 8 -7 9 -18 1
-33 6 -33 12 0 6 9 8 20 5 11 -3 29 -9 40 -12 11 -3 18 -10 15 -15 -4 -5 -2
-9 4 -9 5 0 11 4 13 9 2 5 24 5 53 0 28 -6 59 -10 70 -10 11 -1 14 -3 7 -6 -6
-3 -9 -10 -6 -15 5 -7 2 -8 -6 -3 -10 6 -12 4 -7 -8 4 -11 2 -14 -8 -11 -8 3
-22 1 -32 -5 -14 -8 -9 -10 25 -8 23 2 42 1 43 -2 0 -3 2 -16 5 -29 3 -16 0
-21 -7 -16 -7 4 -10 1 -7 -6 2 -8 10 -16 18 -18 7 -3 10 0 7 5 -3 5 0 21 8 36
7 14 10 29 7 33 -4 4 -1 4 6 0 7 -4 10 -11 7 -16 -3 -4 1 -10 9 -13 9 -4 14 2
14 19 0 14 -5 21 -11 17 -6 -3 -7 -1 -3 6 4 6 0 14 -9 18 -10 3 -21 0 -26 -8
-7 -11 -9 -11 -9 4 0 12 8 17 30 17 17 0 30 -4 30 -9 0 -5 10 -7 22 -3 14 3
19 2 14 -7 -4 -6 -12 -9 -17 -6 -13 9 -11 -9 3 -23 9 -9 9 -12 0 -12 -7 0 -12
-5 -12 -11 0 -5 5 -7 12 -3 7 4 8 3 4 -4 -4 -7 -2 -13 3 -13 26 -3 30 -4 37
-12 14 -13 25 -7 20 11 -7 21 3 36 29 47 19 7 19 8 -5 16 -18 6 -13 7 20 4 25
-2 48 -4 53 -4 11 -1 9 -41 -3 -41 -5 0 -6 8 -3 18 6 15 5 15 -10 4 -8 -8 -13
-21 -10 -30 4 -13 3 -14 -5 -3 -5 7 -15 10 -21 7 -6 -4 -11 -3 -11 3 0 6 -7 8
-15 5 -8 -4 -15 -11 -15 -16 0 -6 6 -8 13 -5 8 3 20 1 28 -4 11 -7 8 -9 -9 -9
-13 0 -21 -4 -18 -8 6 -10 36 -9 52 1 6 3 11 0 11 -8 0 -8 -4 -12 -8 -9 -4 2
-7 -5 -6 -16 1 -11 8 -20 15 -20 10 0 13 11 10 40 -2 22 0 40 4 40 5 0 8 -17
8 -39 l0 -38 67 -2 c37 -1 70 -7 74 -12 4 -8 9 -7 14 2 6 9 10 8 17 -7 8 -18
8 -18 5 1 -2 11 -9 19 -15 17 -8 -1 -12 17 -12 58 l0 60 61 0 61 0 -4 -75 c-3
-79 2 -87 42 -65 26 14 123 22 115 10 -3 -6 1 -10 10 -10 9 0 14 4 11 9 -9 14
20 21 33 8 7 -7 5 1 -3 18 -21 39 -21 40 12 43 26 1 26 1 8 -13 -17 -13 -18
-15 -3 -15 9 0 17 4 17 9 0 4 11 7 25 6 14 -2 25 1 25 5 0 5 9 7 19 5 28 -5
62 6 54 18 -3 6 -1 7 6 3 6 -4 9 -11 6 -16 -3 -5 -1 -11 5 -15 6 -4 8 -11 4
-16 -4 -6 10 -8 38 -4 23 4 52 8 63 9 21 3 35 36 15 36 -9 0 -10 3 -1 13 6 8
8 17 4 21 -4 4 1 4 12 0 11 -5 14 -9 7 -12 -7 -2 -12 -8 -12 -13 0 -6 5 -7 11
-3 8 4 9 -1 4 -17 -4 -17 -3 -20 3 -10 7 9 12 10 16 2 4 -6 12 -9 17 -5 6 3
24 7 40 8 30 2 57 21 46 32 -4 4 -12 2 -20 -4 -8 -7 -18 -7 -27 -2 -9 5 -19 5
-27 -2 -7 -6 -13 -7 -13 -2 0 5 -5 2 -11 -6 -8 -12 -9 -10 -4 8 4 15 1 24 -9
28 -9 3 -14 10 -11 14 3 4 -1 10 -9 13 -20 8 -43 -50 -27 -66 16 -16 14 -32
-2 -18 -10 8 -17 7 -27 -2 -12 -10 -12 -9 0 6 12 16 11 18 -13 13 -21 -4 -27
0 -36 26 -9 26 -9 29 4 18 12 -10 15 -9 15 4 0 21 16 20 29 -1 5 -10 13 -15
17 -10 4 4 -1 16 -11 27 -17 19 -19 19 -36 4 -17 -16 -19 -16 -25 0 -5 14 -9
15 -15 5 -4 -7 -28 -14 -53 -15 -26 -1 -43 2 -40 7 8 14 -49 -2 -58 -15 -4 -6
-9 -15 -11 -21 -2 -6 -12 -4 -22 5 -16 13 -18 13 -13 0 2 -8 17 -15 31 -16 16
-1 24 3 20 9 -4 6 0 8 10 4 10 -3 17 -2 17 2 0 5 -6 12 -12 14 -8 3 -6 6 5 6
9 1 17 -3 17 -7 0 -10 62 -8 78 2 6 3 13 2 17 -4 4 -6 10 -8 14 -6 3 3 7 -4 7
-14 0 -16 -3 -17 -16 -6 -8 7 -26 13 -40 14 -25 1 -25 1 -5 -15 17 -14 18 -15
2 -9 -10 3 -27 1 -37 -4 -17 -9 -18 -8 -13 7 7 17 6 17 -11 0 -12 -12 -26 -15
-44 -11 -15 4 -31 7 -37 8 -13 1 -45 41 -45 55 0 6 14 11 30 11 20 0 30 -5 30
-15 0 -8 5 -15 11 -15 6 0 9 7 5 15 -7 19 24 27 119 29 41 0 75 5 75 9 0 5 4
6 9 2 5 -3 12 -1 16 5 3 5 15 10 26 10 16 0 18 -5 14 -32 l-5 -33 15 25 c8 14
14 19 15 13 0 -7 5 -13 10 -13 6 0 9 3 8 8 -7 18 17 11 24 -8 5 -13 4 -19 -2
-15 -6 3 -10 2 -10 -3 0 -19 14 -21 32 -5 11 9 18 11 18 5 0 -7 -4 -12 -10
-12 -5 0 -10 -5 -10 -11 0 -5 4 -8 8 -5 4 2 14 1 22 -4 8 -5 19 -5 26 1 17 14
46 0 39 -19 -4 -11 -2 -12 7 -4 7 5 29 13 48 16 20 3 53 12 74 21 21 9 40 14
43 11 3 -3 18 1 34 10 16 8 31 14 34 14 26 -1 35 2 47 12 7 7 24 14 38 16 14
1 35 3 47 5 13 1 23 5 23 10 0 4 4 6 9 5 5 -2 9 2 9 7 0 6 -4 9 -9 7 -5 -1 -9
3 -9 9 0 5 -5 7 -12 3 -6 -4 -8 -3 -5 2 3 6 2 16 -3 24 -7 11 -12 11 -23 2 -7
-7 -17 -9 -20 -5 -4 3 -7 1 -7 -4 0 -6 5 -13 12 -15 7 -3 8 -9 3 -18 -6 -10
-11 -10 -21 4 -7 10 -10 24 -8 30 6 17 -22 41 -31 26 -3 -5 -11 -10 -17 -10
-6 0 -5 7 3 18 11 14 11 15 0 5 -7 -6 -20 -9 -28 -6 -8 3 -13 0 -11 -8 2 -8
-3 -13 -10 -11 -8 1 -11 -2 -7 -8 3 -5 1 -10 -4 -10 -6 0 -11 7 -11 16 0 8 -4
12 -10 9 -6 -3 -10 -15 -10 -26 0 -10 -5 -19 -11 -19 -5 0 -7 5 -4 10 6 10 0
13 -30 13 -41 0 -55 -4 -53 -14 2 -6 -4 -14 -12 -16 -13 -4 -13 -3 0 6 13 9
13 11 -2 11 -10 0 -18 -6 -18 -14 0 -19 32 -30 42 -14 6 10 8 10 8 1 0 -7 7
-13 16 -13 12 0 15 -6 10 -25 -5 -21 -3 -25 16 -26 l23 0 -23 -10 c-13 -5 -29
-6 -34 -2 -7 3 -8 1 -4 -5 4 -7 -2 -10 -14 -9 -20 1 -20 2 1 18 21 15 21 18 6
33 -10 10 -18 12 -22 6 -4 -7 -13 -6 -26 1 -12 6 -24 8 -27 4 -8 -8 19 -25 30
-19 4 3 8 -1 8 -8 0 -10 3 -9 10 2 5 8 12 11 17 7 4 -5 1 -12 -7 -17 -19 -12
-73 17 -66 36 7 18 -13 18 -34 -1 -15 -13 -19 -13 -36 4 -11 10 -26 21 -34 24
-9 3 -3 6 13 6 17 1 27 -4 27 -13 0 -8 5 -18 12 -22 7 -5 9 -2 6 8 -5 12 1 15
30 15 20 -1 37 4 40 12 3 9 -7 11 -39 7 -37 -4 -39 -3 -14 4 96 28 155 40 170
33 11 -4 16 -3 12 4 -7 11 130 56 144 47 5 -3 9 -1 9 4 0 10 81 45 88 38 2 -2
-6 -7 -17 -11 -12 -3 -21 -10 -21 -15 0 -5 -6 -7 -14 -4 -8 3 -17 0 -22 -7 -5
-9 -2 -10 9 -6 19 7 22 -4 7 -19 -7 -7 -6 -11 4 -11 8 0 12 5 9 10 -3 6 -1 7
4 4 6 -4 10 0 9 9 -1 17 11 25 62 42 18 6 32 6 32 1 0 -5 -4 -9 -10 -9 -5 0
-10 -5 -10 -12 0 -6 3 -8 7 -5 3 4 13 1 21 -6 13 -10 15 -9 9 11 -5 20 -2 23
13 19 11 -3 20 -1 22 4 2 4 10 4 18 -1 13 -9 13 -11 0 -20 -14 -9 -7 -14 13
-11 4 1 20 -5 36 -14 28 -14 29 -14 27 10 -1 20 -5 23 -27 18 -19 -3 -26 -1
-26 11 0 11 4 13 12 6 17 -14 45 -2 38 16 -4 12 -7 12 -18 -2 -11 -16 -12 -16
-18 0 -7 18 15 32 32 22 5 -4 12 -2 16 4 3 5 -2 10 -12 11 -10 0 -13 3 -5 6 6
2 12 12 12 20 0 13 -4 11 -19 -5 -22 -26 -30 -28 -27 -7 2 13 72 54 154 90 23
10 31 11 27 2 -4 -7 -1 -5 7 4 21 26 126 81 139 73 7 -4 9 -3 6 4 -4 5 14 22
40 38 27 15 78 49 116 76 68 49 89 59 68 35 -8 -10 -7 -14 3 -14 8 0 13 8 11
18 -4 20 81 85 106 81 9 -2 22 5 30 15 13 15 12 16 -6 10 -15 -5 -13 -1 8 18
16 14 33 22 39 19 6 -4 8 -2 5 3 -9 14 19 37 34 27 7 -4 9 -3 6 3 -9 14 61 75
75 67 6 -4 8 -3 5 3 -7 11 56 76 66 68 4 -3 5 -2 2 2 -3 3 39 52 93 107 54 56
138 151 186 211 49 61 90 109 93 107 3 -2 8 0 11 4 4 4 1 4 -5 0 -20 -11 -15
3 11 35 13 15 27 25 31 21 5 -4 5 -1 1 6 -4 7 7 32 27 60 19 26 42 62 51 80
14 26 20 31 31 22 10 -8 15 -8 21 1 4 7 3 9 -4 5 -29 -18 -18 22 32 111 75
135 121 237 184 406 15 42 30 75 33 73 2 -2 5 9 6 25 1 16 9 50 18 76 42 123
98 381 120 551 l7 52 72 0 c43 0 77 -5 84 -12 9 -9 12 56 12 294 0 169 -3 313
-6 322 -5 13 -22 16 -84 16 -84 0 -90 4 -90 60 0 100 -91 482 -170 713 -141
415 -330 728 -664 1101 -197 219 -524 471 -826 637 -347 189 -774 324 -1152
365 l-158 18 0 81 0 82 -41 18 c-22 11 -54 35 -70 54 l-29 36 0 -138z m-357
-414 c4 -37 5 -68 3 -71 -2 -2 -69 -14 -147 -27 -95 -15 -146 -20 -150 -13
-11 18 -20 121 -11 130 7 7 225 44 278 47 19 1 22 -6 27 -66z m735 52 c126
-16 162 -24 162 -34 0 -30 -25 -124 -34 -127 -6 -2 -72 6 -146 19 -152 25
-149 22 -135 114 7 50 -1 49 153 28z m-400 -41 l22 -15 0 -500 0 -499 -59 0
-59 0 -4 43 c-7 59 -7 739 -1 865 5 94 7 104 27 112 32 13 49 12 74 -6z m824
-53 c46 -17 100 -37 120 -45 l37 -16 -26 -62 c-14 -35 -27 -65 -28 -67 -6 -5
-224 69 -230 79 -4 6 11 71 30 128 6 16 0 17 97 -17z m-1621 -48 c13 -47 14
-64 6 -71 -7 -5 -61 -24 -121 -42 -89 -27 -110 -30 -117 -19 -19 31 -41 99
-36 113 6 15 211 87 237 83 9 -1 21 -26 31 -64z m-407 -149 c15 -37 26 -68 24
-69 -14 -11 -173 -73 -179 -70 -9 6 -71 116 -67 120 8 9 173 85 183 85 6 0 24
-30 39 -66z m2465 24 l81 -42 -31 -55 c-17 -31 -35 -60 -39 -64 -4 -5 -48 12
-98 37 l-91 46 21 47 c38 89 44 90 157 31z m-2815 -193 c20 -30 36 -59 36 -64
0 -8 -134 -111 -145 -111 -10 0 -85 103 -85 116 0 12 134 114 150 114 4 0 24
-25 44 -55z m3141 3 c53 -37 74 -57 70 -67 -9 -23 -69 -100 -78 -101 -11 0
-120 75 -136 94 -12 14 -9 24 23 71 20 30 38 55 41 55 3 0 39 -23 80 -52z
m-2181 -85 c7 -27 11 -51 7 -54 -3 -4 -49 -19 -101 -34 -210 -60 -540 -210
-540 -246 0 -5 23 -43 50 -85 28 -42 50 -82 50 -88 0 -6 -7 -22 -16 -34 -12
-17 -24 -22 -47 -20 -29 3 -41 17 -117 129 -47 70 -97 141 -112 158 -44 51
-36 90 21 104 20 5 32 -2 63 -35 28 -30 41 -38 50 -31 29 24 214 125 271 150
56 23 382 132 399 133 4 0 14 -21 22 -47z m1331 -17 c150 -50 298 -117 401
-181 40 -25 74 -45 77 -45 3 0 15 16 27 34 24 40 48 50 91 41 39 -9 58 -46 38
-73 -8 -11 -46 -62 -85 -113 -39 -52 -85 -119 -103 -150 -34 -62 -62 -77 -98
-54 -45 30 -37 71 34 164 18 24 33 49 33 55 0 13 -155 100 -266 149 -79 34
-294 107 -362 122 -24 5 -32 11 -28 23 3 10 8 31 12 47 4 17 8 33 10 36 6 10
76 -8 219 -55z m-2599 -113 c50 -62 50 -61 3 -101 -24 -20 -77 -68 -117 -106
l-72 -70 -50 49 -50 49 23 24 c40 44 212 192 223 192 6 0 24 -17 40 -37z
m3809 -66 c63 -55 115 -102 115 -105 -1 -4 -20 -28 -44 -54 l-43 -47 -99 90
c-55 50 -107 99 -118 109 -18 18 -18 19 20 64 21 25 42 45 46 44 4 -2 59 -47
123 -101z m-3366 -191 l31 -39 -47 -32 c-182 -122 -492 -475 -579 -659 l-17
-35 -37 19 c-70 35 -69 39 3 147 98 147 263 348 358 437 112 105 247 212 256
203 0 -1 15 -20 32 -41z m2927 -56 c164 -130 336 -325 486 -554 39 -59 55 -92
49 -100 -5 -6 -26 -20 -47 -31 -36 -19 -37 -19 -48 -1 -47 80 -150 225 -220
310 -94 114 -269 286 -336 331 -86 56 -84 53 -47 96 17 21 37 37 44 36 6 -1
60 -40 119 -87z m-1930 -42 l126 -123 -40 -43 -40 -43 -58 52 c-33 29 -93 86
-135 127 l-76 74 35 39 c19 21 41 39 49 39 8 0 70 -55 139 -122z m-1794 8 l47
-44 -23 -25 c-13 -14 -45 -53 -70 -86 -26 -34 -50 -61 -54 -61 -4 1 -28 20
-54 43 l-46 42 69 88 c38 48 73 87 77 87 4 -1 28 -20 54 -44z m4441 7 c18 -20
49 -59 70 -87 l37 -50 -42 -38 c-24 -20 -48 -36 -54 -35 -6 1 -41 38 -77 81
l-66 79 47 43 c26 24 48 43 50 44 1 0 17 -16 35 -37z m-1434 -149 c7 -30 11
-57 9 -59 -1 -2 -46 -15 -98 -30 -52 -15 -176 -51 -275 -80 -371 -110 -485
-138 -511 -126 -17 7 -24 19 -24 39 0 42 20 61 75 76 57 14 66 36 20 49 -45
13 -104 -11 -132 -52 -26 -39 -29 -86 -9 -133 8 -18 17 -45 21 -60 9 -43 61
-96 103 -104 28 -6 47 -1 87 20 107 56 135 53 65 -7 -123 -105 -316 -64 -387
81 -49 100 -35 217 36 295 69 77 188 102 282 59 44 -19 99 -66 99 -84 0 -5 10
-6 23 -2 42 15 582 172 593 173 6 1 16 -24 23 -55z m-2874 -100 c41 -31 75
-59 75 -63 -1 -3 -16 -23 -35 -45 l-35 -39 -52 37 c-29 20 -68 49 -86 64 l-34
28 34 41 c18 23 39 40 45 38 7 -2 46 -30 88 -61z m4218 23 l27 -42 -32 -28
c-18 -15 -57 -44 -87 -65 l-53 -37 -29 35 c-16 19 -29 39 -29 45 0 9 26 31
130 114 35 28 41 26 73 -22z m-4584 -90 l51 -34 -52 -99 c-28 -54 -52 -101
-54 -102 -4 -6 -103 50 -116 66 -10 11 -7 23 11 56 47 82 91 146 100 146 5 0
32 -15 60 -33z m4917 6 c26 -40 84 -150 84 -160 -1 -9 -103 -73 -117 -73 -4 0
-31 39 -60 88 -56 96 -57 95 11 144 48 35 59 35 82 1z m206 -368 c26 -47 68
-134 68 -140 0 -3 -130 -65 -136 -65 -4 0 -26 48 -75 158 l-18 42 52 30 c29
17 59 29 67 27 8 -1 27 -25 42 -52z m-4894 -256 c-77 -40 -73 15 -76 -907 l-3
-823 298 3 c293 3 299 4 366 30 l68 26 -2 -224 -1 -224 -617 1 c-368 0 -607 4
-594 9 55 22 53 -13 53 1039 0 661 -4 979 -11 1000 -6 17 -26 44 -45 61 l-35
30 318 0 318 -1 -37 -20z m1376 2 c-45 -27 -64 -59 -64 -107 0 -37 48 -222
175 -674 25 -91 68 -246 96 -345 76 -276 90 -320 99 -304 4 8 75 217 158 464
151 451 295 865 326 940 21 50 19 53 90 -146 122 -345 148 -423 353 -1054 70
-216 83 -240 96 -183 2 13 32 118 65 233 33 116 92 327 132 470 39 143 92 334
117 424 57 205 54 236 -22 283 -29 18 -24 18 315 18 l345 -1 -37 -19 c-74 -40
-75 -42 -247 -640 -54 -190 -165 -574 -246 -855 -81 -280 -155 -536 -163 -567
l-16 -58 -222 0 -222 0 -46 133 c-25 72 -94 276 -152 452 -58 176 -110 327
-114 335 -13 22 -24 -9 -185 -490 l-142 -425 -219 0 -218 0 -37 125 c-21 69
-76 256 -124 415 -113 376 -154 516 -377 1285 -28 96 -57 189 -65 205 -19 38
-63 85 -79 85 -7 0 -16 5 -19 10 -4 7 111 10 337 10 342 0 343 0 312 -19z
m3055 -4 c-73 -48 -69 2 -69 -910 l0 -819 218 4 c221 4 239 7 345 53 16 7 17
-7 17 -219 l0 -226 -542 0 c-334 0 -537 4 -528 9 8 6 18 7 24 4 5 -3 6 -1 2 5
-4 6 0 22 9 35 14 21 15 133 15 1002 0 923 -1 980 -18 1009 -10 17 -33 41 -52
53 l-33 23 323 0 323 0 -34 -23z m624 -199 c36 -153 50 -222 62 -310 l6 -48
-65 0 c-74 0 -65 -13 -87 135 -6 44 -26 134 -45 199 -19 66 -33 125 -30 132 5
12 78 42 106 43 12 1 25 -35 53 -151z m315 -827 c2 -36 -1 -57 -10 -63 -13 -8
-266 -9 -300 0 -15 4 -18 15 -18 63 l0 59 163 -2 162 -3 3 -54z m-5120 -1377
c99 -159 232 -313 399 -463 46 -41 80 -77 78 -81 -2 -4 5 -16 18 -26 18 -16
19 -16 8 -1 -22 28 -3 20 44 -19 l44 -35 -26 -44 c-26 -41 -28 -42 -50 -28
-12 8 -20 20 -16 26 3 5 2 7 -4 4 -15 -9 -183 134 -299 255 -86 90 -189 217
-269 333 -32 46 -69 114 -64 118 67 54 82 49 137 -39z m3968 48 l32 -17 -55
-90 c-93 -152 -265 -361 -286 -348 -7 3 -9 3 -5 -2 20 -22 -287 -295 -332
-295 -5 0 -19 14 -31 31 -16 23 -20 36 -12 47 14 24 34 27 26 5 -3 -10 -3 -15
1 -11 4 3 9 14 10 23 1 9 22 32 47 51 152 120 440 441 520 581 26 47 39 51 85
25z m-4442 -157 c27 -47 47 -87 45 -89 -88 -61 -112 -76 -119 -71 -6 4 -10 10
-10 14 0 4 -20 43 -45 86 l-45 79 58 33 c31 18 60 33 63 33 3 0 27 -38 53 -85z
m4921 58 c30 -15 55 -31 55 -36 0 -8 -69 -144 -89 -176 -7 -10 -20 -5 -60 25
-28 21 -51 42 -51 47 0 9 83 167 87 167 2 0 27 -12 58 -27z m-4511 -165 l24
-41 -75 -59 c-42 -32 -79 -58 -82 -58 -4 0 -21 20 -38 44 l-32 45 77 55 c42
31 82 56 89 56 6 0 23 -19 37 -42z m2572 30 c16 -11 23 -43 13 -59 -13 -22
-111 -26 -645 -25 -542 1 -544 1 -544 48 0 41 30 43 611 43 305 0 559 -3 565
-7z m1488 -20 c-4 -6 -3 -8 3 -5 11 7 123 -60 123 -72 0 -4 -14 -26 -31 -49
l-31 -42 -36 25 c-20 14 -37 31 -37 38 0 6 -7 11 -16 9 -8 -1 -28 11 -43 27
l-27 29 31 36 c27 30 35 34 51 25 11 -5 16 -15 13 -21z m-2756 -21 c4 -20 -25
-34 -39 -20 -14 14 1 45 20 41 9 -2 17 -11 19 -21z m1425 9 c5 -13 -10 -36
-24 -36 -10 0 -20 30 -13 41 8 14 31 11 37 -5z m-2933 -194 c30 -42 56 -79 58
-83 2 -4 -20 -23 -47 -44 l-51 -36 -25 28 c-13 15 -25 31 -25 34 0 3 -16 26
-35 50 l-35 44 48 42 c26 23 49 42 52 42 3 0 30 -34 60 -77z m4568 13 c2 -2
-24 -44 -59 -94 l-62 -90 -28 20 c-16 11 -26 26 -23 33 3 8 1 17 -5 21 -7 4
-8 0 -4 -11 5 -14 3 -15 -15 -5 -12 7 -22 17 -22 23 0 6 25 46 56 89 l56 77
51 -30 c29 -17 54 -32 55 -33z m-1794 2 c12 -9 17 -23 14 -42 l-3 -30 -581 -3
c-513 -2 -583 0 -594 13 -18 21 2 62 32 68 13 2 269 5 569 6 433 1 549 -2 563
-12z m-1266 -34 c4 -25 -22 -37 -38 -17 -10 11 -10 17 0 29 17 20 34 14 38
-12z m1420 3 c2 -10 -1 -23 -8 -30 -17 -17 -44 22 -28 41 14 17 32 12 36 -11z
m-1843 -61 c14 -13 25 -31 25 -39 0 -8 -40 -68 -88 -133 -49 -65 -101 -140
-116 -166 -24 -40 -32 -47 -60 -47 -18 0 -37 5 -44 12 -19 19 -14 62 11 97 12
17 58 84 101 149 44 64 87 125 95 135 20 24 48 21 76 -8z m2398 -117 c58 -79
112 -161 121 -182 15 -35 15 -41 1 -63 -11 -16 -25 -23 -46 -23 -25 0 -34 8
-57 46 -15 25 -44 67 -64 94 -43 56 -45 62 -20 54 14 -5 14 -4 2 4 -8 6 -17 9
-21 6 -12 -7 -99 118 -99 143 0 28 33 63 59 63 13 0 53 -45 124 -142z m-697
-10 c15 -14 16 -22 6 -43 -11 -24 -16 -25 -89 -26 -903 -7 -1080 -3 -1097 24
-18 28 5 51 55 57 24 3 283 5 576 5 489 0 534 -1 549 -17z m-1281 -28 c0 -27
-22 -39 -31 -16 -8 22 3 49 19 43 6 -2 12 -14 12 -27z m1433 7 c4 -20 -25 -34
-40 -19 -15 15 -1 44 19 40 10 -2 19 -11 21 -21z m-2744 -8 c-3 -5 -1 -8 4 -7
8 3 212 -185 212 -195 0 -3 -15 -23 -34 -45 l-33 -40 -57 44 c-35 28 -54 49
-50 57 4 7 3 8 -1 4 -5 -4 -39 22 -76 59 l-67 67 46 37 c42 34 72 44 56 19z
m4071 -25 c38 -34 39 -36 21 -50 -11 -8 -16 -14 -12 -14 5 0 3 -7 -4 -15 -7
-8 -16 -12 -21 -9 -5 3 -8 0 -7 -8 2 -7 -3 -12 -10 -10 -8 1 -11 -2 -8 -7 8
-12 -43 -53 -57 -44 -5 3 -7 1 -4 -4 8 -13 -77 -85 -88 -75 -3 4 -5 0 -3 -8 6
-27 -17 -16 -55 26 l-37 42 31 26 c17 14 36 23 41 20 6 -4 8 -2 5 3 -6 9 148
164 162 163 3 -1 24 -17 46 -36z m-2809 -240 c110 -36 200 -67 202 -68 1 -2
-3 -18 -9 -37 -6 -19 -12 -39 -14 -46 -8 -26 -370 99 -555 192 l-90 45 21 30
c12 16 27 26 32 23 6 -3 7 -1 3 5 -19 32 13 24 108 -24 60 -31 188 -82 302
-120z m1927 136 l26 -40 -87 -47 c-96 -53 -162 -82 -267 -120 -77 -27 -296
-85 -302 -80 -1 2 -6 25 -10 52 l-6 48 36 -7 c25 -5 38 -3 44 7 4 7 49 26 98
42 100 32 204 74 318 130 42 20 81 34 87 30 6 -3 10 -3 9 2 -7 38 24 29 54
-17z m-2721 -224 l77 -49 -26 -33 c-14 -19 -30 -34 -35 -34 -5 0 -6 -5 -3 -10
4 -6 2 -17 -5 -25 -9 -11 -20 -8 -61 18 -28 17 -57 40 -65 52 -8 11 -17 19
-19 18 -3 -2 -11 -3 -17 -2 -10 0 -10 2 0 6 6 2 12 9 12 14 0 6 -6 7 -12 3 -7
-5 5 15 27 44 22 28 42 50 45 49 3 -1 40 -24 82 -51z m3200 1 l36 -53 -54 -37
c-30 -21 -59 -35 -66 -31 -6 4 -8 3 -5 -3 4 -6 -4 -18 -18 -27 -24 -16 -25
-15 -50 29 -15 24 -24 49 -20 55 4 6 3 10 -2 9 -4 -1 -12 -1 -17 0 -11 1 135
110 149 110 6 1 26 -23 47 -52z m-1610 -282 c1 -264 1 -277 -15 -287 -7 -5
-30 -7 -52 -6 l-40 3 -3 250 c-1 137 0 255 2 261 3 7 25 11 55 11 l51 -1 2
-231z m-1278 99 c42 -19 78 -39 81 -44 8 -12 -23 -70 -36 -70 -8 0 -7 5 1 15
19 22 8 25 -12 3 -12 -12 -14 -18 -5 -18 8 0 7 -4 -3 -11 -12 -9 -11 -10 7 -6
15 3 20 1 16 -9 -3 -8 -9 -14 -14 -14 -17 0 -58 23 -54 31 3 4 0 11 -6 15 -8
4 -9 3 -5 -4 11 -19 -11 -14 -64 13 -50 25 -50 25 -34 51 l17 25 22 -21 c12
-11 25 -20 30 -20 4 0 -2 9 -15 20 -13 11 -19 20 -14 20 5 0 3 4 -4 9 -12 7
-12 12 -1 30 8 11 15 21 16 21 1 0 36 -16 77 -36z m2560 -20 c15 -31 26 -57
24 -59 -6 -6 -169 -75 -177 -75 -13 0 -44 77 -37 89 4 6 2 11 -4 11 -6 0 -8 5
-5 11 7 11 142 77 161 78 6 1 23 -24 38 -55z m-2183 -125 c105 -30 105 -31
101 -60 -2 -16 -9 -29 -14 -29 -5 0 -6 6 -2 13 5 9 3 9 -7 -1 -12 -11 -12 -14
1 -22 40 -25 -44 -21 -112 5 -10 4 -18 3 -18 -3 0 -10 82 -36 113 -35 9 0 17
-4 17 -8 0 -14 -18 -11 -133 23 -105 31 -108 32 -102 57 10 41 33 91 42 91 4
0 56 -14 114 -31z m1831 -28 c21 -64 23 -61 -72 -90 -108 -33 -118 -34 -133
-19 -21 20 -29 81 -15 100 13 17 161 68 187 65 8 -1 22 -26 33 -56z m-1282
-117 c0 -17 -3 -46 -6 -63 l-7 -32 -51 6 c-65 8 -230 36 -233 39 -1 1 2 29 9
62 l11 59 138 -19 139 -20 0 -32z m880 31 c0 -21 -5 -35 -12 -35 -8 -1 -5 -7
6 -15 22 -16 15 -45 -11 -45 -10 -1 -64 -7 -120 -14 -73 -9 -106 -9 -114 -2
-9 8 -10 8 -5 -1 5 -9 0 -13 -13 -13 -19 0 -21 6 -21 65 0 61 2 65 23 66 28 0
97 8 162 19 99 16 105 14 105 -25z m696 -94 c-4 -5 0 -11 6 -14 10 -3 9 -9 -3
-22 -13 -13 -21 -15 -37 -6 -25 13 -45 14 -38 2 4 -5 -3 -7 -14 -4 -19 5 -19
6 6 19 15 8 29 12 32 10 2 -3 11 1 19 9 16 16 38 20 29 6z m-116 -51 c0 -5 -4
-10 -10 -10 -5 0 -10 5 -10 10 0 6 5 10 10 10 6 0 10 -4 10 -10z m-2313 -28
c13 -22 -1 -62 -22 -62 -8 0 -15 5 -15 11 0 5 5 7 10 4 15 -9 12 41 -3 54 -8
6 -18 7 -22 3 -5 -4 -5 -2 -2 5 9 15 40 6 54 -15z m-47 -42 c0 -5 -7 -10 -16
-10 -8 0 -12 5 -9 10 3 6 10 10 16 10 5 0 9 -4 9 -10z m264 -69 c-9 -10 -36
28 -29 39 6 9 12 6 21 -11 7 -13 10 -26 8 -28z m1893 5 c-26 -24 -39 -22 -15
2 7 7 8 12 4 12 -5 0 -3 7 4 15 9 11 16 13 23 6 7 -7 2 -18 -16 -35z m-1847
24 c0 -5 -5 -10 -11 -10 -5 0 -7 5 -4 10 3 6 8 10 11 10 2 0 4 -4 4 -10z
m1917 4 c-3 -3 -12 -4 -19 -1 -8 3 -5 6 6 6 11 1 17 -2 13 -5z m-2037 -24 c0
-5 -2 -10 -4 -10 -3 0 -8 5 -11 10 -3 6 -1 10 4 10 6 0 11 -4 11 -10z m1893
-8 c15 -2 27 1 27 7 0 6 4 11 9 11 6 0 6 -12 0 -30 -6 -16 -15 -27 -21 -24 -6
4 -6 9 2 14 8 5 3 7 -12 7 -22 -2 -24 -5 -17 -19 5 -10 16 -18 24 -18 19 0 28
-17 14 -26 -8 -5 -9 -3 -5 5 5 8 3 12 -5 10 -24 -3 -43 1 -36 7 3 4 0 19 -8
35 -16 29 -20 51 -7 34 4 -6 19 -12 35 -13z m151 2 c11 -27 7 -37 -9 -24 -8 7
-12 16 -9 21 3 5 -2 9 -12 9 -11 0 -14 -4 -7 -12 8 -12 9 -24 3 -45 -1 -5 -6
5 -10 21 -5 16 -7 33 -4 38 9 14 42 9 48 -8z m-67 -26 c-3 -8 -6 -5 -6 6 -1
11 2 17 5 13 3 -3 4 -12 1 -19z m-338 -9 c13 -11 21 -22 17 -26 -3 -4 -17 4
-31 17 -14 13 -30 20 -40 16 -9 -3 -13 -2 -10 4 10 16 38 11 64 -11z m325 -8
c3 -5 0 -11 -8 -14 -15 -6 -26 1 -26 15 0 11 27 10 34 -1z m-1274 -16 c0 -2
-10 -10 -22 -16 -21 -11 -22 -11 -9 4 13 16 31 23 31 12z m1039 -15 c8 12 12
10 20 -10 5 -14 10 -20 10 -13 1 13 31 6 31 -7 0 -9 -28 -7 -53 4 -9 5 -26 6
-37 3 -17 -4 -18 -2 -9 15 9 17 13 18 20 7 8 -12 10 -12 18 1z m-1039 -22 c0
-6 -3 -8 -7 -5 -3 4 -12 2 -20 -4 -8 -8 -13 -8 -13 -1 0 10 15 19 33 21 4 1 7
-4 7 -11z m564 -64 c9 -23 7 -34 -5 -34 -6 0 -8 8 -5 18 5 14 4 14 -9 -2 -8
-11 -15 -15 -15 -9 0 7 5 15 10 18 6 4 8 11 5 16 -4 5 -2 9 3 9 6 0 13 -7 16
-16z"/>
<path d="M1730 1559 c0 -5 5 -7 10 -4 6 3 10 8 10 11 0 2 -4 4 -10 4 -5 0 -10
-5 -10 -11z"/>
<path d="M1785 1520 c-3 -6 1 -7 9 -4 18 7 21 14 7 14 -6 0 -13 -4 -16 -10z"/>
<path d="M1866 1421 c-4 -5 -2 -12 3 -15 5 -4 12 -2 15 3 4 5 2 12 -3 15 -5 4
-12 2 -15 -3z"/>
<path d="M1860 1376 c0 -2 8 -10 18 -17 15 -13 16 -12 3 4 -13 16 -21 21 -21
13z"/>
<path d="M2010 1346 c0 -2 8 -10 18 -17 15 -13 16 -12 3 4 -13 16 -21 21 -21
13z"/>
<path d="M5400 1701 c0 -6 4 -13 10 -16 6 -3 7 1 4 9 -7 18 -14 21 -14 7z"/>
<path d="M2040 1156 c0 -2 7 -7 16 -10 8 -3 12 -2 9 4 -6 10 -25 14 -25 6z"/>
<path d="M2000 1120 c0 -5 7 -10 16 -10 8 0 12 5 9 10 -3 6 -10 10 -16 10 -5
0 -9 -4 -9 -10z"/>
<path d="M1470 1126 c0 -2 7 -7 16 -10 8 -3 12 -2 9 4 -6 10 -25 14 -25 6z"/>
<path d="M5237 1078 c-4 -11 4 -14 32 -13 20 0 35 4 34 8 -3 7 -8 8 -18 6 -19
-5 -31 -3 -36 4 -3 5 -9 2 -12 -5z"/>
<path d="M2235 1160 c-3 -6 1 -7 9 -4 18 7 21 14 7 14 -6 0 -13 -4 -16 -10z"/>
<path d="M2366 1067 c3 -10 9 -15 12 -12 3 3 0 11 -7 18 -10 9 -11 8 -5 -6z"/>
<path d="M2555 990 c-3 -5 -1 -10 4 -10 6 0 11 5 11 10 0 6 -2 10 -4 10 -3 0
-8 -4 -11 -10z"/>
<path d="M2825 960 c-3 -6 1 -7 9 -4 18 7 21 14 7 14 -6 0 -13 -4 -16 -10z"/>
<path d="M4466 1088 c3 -5 10 -6 15 -3 13 9 11 12 -6 12 -8 0 -12 -4 -9 -9z"/>
<path d="M4040 1000 c-9 -6 -10 -10 -3 -10 6 0 15 5 18 10 8 12 4 12 -15 0z"/>
<path d="M3960 966 c0 -2 7 -7 16 -10 8 -3 12 -2 9 4 -6 10 -25 14 -25 6z"/>
<path d="M4965 930 c-3 -6 1 -7 9 -4 18 7 21 14 7 14 -6 0 -13 -4 -16 -10z"/>
<path d="M3410 831 c0 -6 4 -13 10 -16 6 -3 7 1 4 9 -7 18 -14 21 -14 7z"/>
<path d="M3378 653 c6 -2 9 -10 6 -15 -4 -7 -2 -8 5 -4 13 9 5 26 -12 25 -9 0
-8 -2 1 -6z"/>
<path d="M3410 603 c0 -6 8 -17 18 -24 16 -13 16 -13 2 6 -8 11 -16 22 -17 24
-2 2 -3 0 -3 -6z"/>
<path d="M3403 565 c0 -8 4 -12 9 -9 5 3 6 10 3 15 -9 13 -12 11 -12 -6z"/>
<path d="M3390 505 c0 -5 5 -17 10 -25 5 -8 10 -10 10 -5 0 6 -5 17 -10 25 -5
8 -10 11 -10 5z"/>
<path d="M3431 494 c0 -11 3 -14 6 -6 3 7 2 16 -1 19 -3 4 -6 -2 -5 -13z"/>
<path d="M3376 462 c-3 -5 1 -9 9 -9 8 0 12 4 9 9 -3 4 -7 8 -9 8 -2 0 -6 -4
-9 -8z"/>
<path d="M3364 424 c-18 -15 -18 -15 2 -5 12 6 24 7 28 4 3 -3 6 -1 6 5 0 16
-12 15 -36 -4z"/>
<path d="M3410 419 c0 -5 5 -7 10 -4 6 3 10 8 10 11 0 2 -4 4 -10 4 -5 0 -10
-5 -10 -11z"/>
<path d="M3370 399 c0 -5 5 -7 10 -4 6 3 10 8 10 11 0 2 -4 4 -10 4 -5 0 -10
-5 -10 -11z"/>
<path d="M2110 680 c0 -5 5 -10 10 -10 6 0 10 5 10 10 0 6 -4 10 -10 10 -5 0
-10 -4 -10 -10z"/>
<path d="M2462 627 c-8 -9 -3 -13 19 -13 34 -2 36 2 10 15 -13 8 -22 7 -29 -2z"/>
<path d="M2400 560 c0 -4 18 -12 41 -18 48 -12 44 -4 -6 14 -19 6 -35 8 -35 4z"/>
<path d="M2568 533 c7 -3 16 -2 19 1 4 3 -2 6 -13 5 -11 0 -14 -3 -6 -6z"/>
<path d="M4325 629 c-4 -6 -5 -12 -2 -15 2 -3 7 2 10 11 7 17 1 20 -8 4z"/>
<path d="M4346 623 c-6 -14 -5 -15 5 -6 7 7 10 15 7 18 -3 3 -9 -2 -12 -12z"/>
<path d="M3075 501 c-3 -5 -2 -12 3 -15 5 -3 9 1 9 9 0 17 -3 19 -12 6z"/>
<path d="M2850 486 c0 -2 9 -6 20 -9 11 -3 18 -1 14 4 -5 9 -34 13 -34 5z"/>
<path d="M3815 510 c-4 -6 -11 -7 -17 -4 -7 4 -8 2 -4 -5 6 -9 11 -9 22 0 14
11 18 19 10 19 -3 0 -8 -5 -11 -10z"/>
<path d="M3930 510 c-8 -5 -12 -12 -9 -15 4 -3 12 1 19 10 14 17 11 19 -10 5z"/>
<path d="M3740 500 c-8 -5 -18 -6 -22 -4 -4 3 -5 -2 -2 -10 3 -9 1 -16 -5 -16
-6 0 -11 -5 -11 -11 0 -6 6 -9 14 -6 10 4 13 -1 10 -16 -4 -22 -4 -22 5 1 6
12 8 29 4 38 -5 13 -2 15 15 9 13 -3 22 -2 22 4 0 15 -14 21 -30 11z"/>
<path d="M3836 492 c-3 -5 1 -9 9 -9 8 0 12 4 9 9 -3 4 -7 8 -9 8 -2 0 -6 -4
-9 -8z"/>
<path d="M3785 480 c3 -6 1 -10 -5 -10 -7 0 -6 -5 2 -14 9 -10 17 -11 25 -4 7
6 19 8 28 5 8 -4 17 -1 21 6 4 7 4 9 -1 5 -4 -4 -23 -1 -42 7 -18 8 -31 10
-28 5z"/>
<path d="M3874 454 c-18 -19 -19 -22 -5 -22 9 1 21 -1 26 -3 6 -2 10 1 10 6 0
6 -6 8 -14 7 -13 -3 -13 -1 -2 12 21 25 9 25 -15 0z"/>
<path d="M3946 455 c6 -14 4 -16 -6 -10 -8 5 -11 4 -7 -3 4 -5 16 -8 27 -5 12
3 19 6 18 7 -2 1 -11 8 -21 15 -15 12 -17 12 -11 -4z"/>
<path d="M3760 439 c0 -5 5 -7 10 -4 6 3 10 8 10 11 0 2 -4 4 -10 4 -5 0 -10
-5 -10 -11z"/>
<path d="M4650 390 c0 -5 5 -10 11 -10 5 0 7 5 4 10 -3 6 -8 10 -11 10 -2 0
-4 -4 -4 -10z"/>
<path d="M464 1853 c2 -9 8 -18 15 -19 6 -1 7 0 1 3 -5 2 -8 9 -5 13 3 5 1 11
-4 14 -5 4 -8 -2 -7 -11z"/>
<path d="M6376 1828 c3 -5 10 -6 15 -3 13 9 11 12 -6 12 -8 0 -12 -4 -9 -9z"/>
<path d="M535 1790 c-3 -6 1 -7 9 -4 18 7 21 14 7 14 -6 0 -13 -4 -16 -10z"/>
<path d="M545 1730 c3 -5 8 -10 11 -10 2 0 4 5 4 10 0 6 -5 10 -11 10 -5 0 -7
-4 -4 -10z"/>
<path d="M6085 1600 c-3 -6 1 -7 9 -4 18 7 21 14 7 14 -6 0 -13 -4 -16 -10z"/>
<path d="M635 1519 c-4 -6 -5 -12 -2 -15 2 -3 7 2 10 11 7 17 1 20 -8 4z"/>
<path d="M677 1399 c7 -7 15 -10 18 -7 3 3 -2 9 -12 12 -14 6 -15 5 -6 -5z"/>
<path d="M5929 1381 c-16 -27 -16 -28 1 -24 12 3 16 11 13 21 -4 10 -2 13 5 8
8 -5 10 -2 6 8 -8 20 -6 21 -25 -13z"/>
<path d="M815 1375 c0 -21 2 -23 11 -10 15 20 21 19 36 -9 12 -22 14 -23 28
-8 13 14 12 15 -4 9 -14 -6 -17 -4 -12 10 4 10 4 14 0 11 -4 -4 -16 -1 -28 7
-28 20 -31 19 -31 -10z"/>
<path d="M5990 1384 c0 -8 5 -12 10 -9 6 4 8 11 5 16 -9 14 -15 11 -15 -7z"/>
<path d="M6105 1389 c-4 -6 -5 -12 -2 -15 2 -3 7 2 10 11 7 17 1 20 -8 4z"/>
<path d="M775 1380 c3 -5 8 -10 11 -10 2 0 4 5 4 10 0 6 -5 10 -11 10 -5 0 -7
-4 -4 -10z"/>
<path d="M6073 1367 c0 -8 6 -14 14 -14 9 0 10 4 2 14 -6 7 -12 13 -14 13 -1
0 -2 -6 -2 -13z"/>
<path d="M740 1336 c0 -2 7 -7 16 -10 8 -3 12 -2 9 4 -6 10 -25 14 -25 6z"/>
<path d="M916 1326 c3 -8 13 -17 22 -21 13 -5 13 -2 -3 15 -21 24 -26 25 -19
6z"/>
<path d="M5893 1325 c0 -8 4 -12 9 -9 5 3 6 10 3 15 -9 13 -12 11 -12 -6z"/>
<path d="M833 1260 c-13 -5 -23 -11 -23 -14 0 -7 40 6 46 15 6 10 6 10 -23 -1z"/>
<path d="M820 1220 c0 -5 5 -10 11 -10 5 0 7 5 4 10 -3 6 -8 10 -11 10 -2 0
-4 -4 -4 -10z"/>
<path d="M5821 1227 c2 -1 13 -9 24 -17 19 -14 19 -14 6 3 -7 9 -18 17 -24 17
-6 0 -8 -1 -6 -3z"/>
<path d="M1000 1198 c-11 -22 -11 -23 5 -3 13 17 17 18 25 5 5 -8 6 -18 3 -24
-3 -5 -1 -6 5 -2 9 5 9 13 2 27 -14 25 -27 24 -40 -3z"/>
<path d="M5780 1216 c0 -2 7 -7 16 -10 8 -3 12 -2 9 4 -6 10 -25 14 -25 6z"/>
<path d="M950 1134 c0 -5 7 -18 15 -28 8 -11 15 -16 15 -10 0 5 -7 18 -15 28
-8 11 -15 16 -15 10z"/>
<path d="M1061 1098 c5 -10 11 -18 12 -18 2 0 3 8 4 18 1 10 -5 19 -12 19 -10
0 -11 -5 -4 -19z"/>
<path d="M5865 1110 c-3 -5 -1 -10 4 -10 6 0 11 5 11 10 0 6 -2 10 -4 10 -3 0
-8 -4 -11 -10z"/>
<path d="M1090 1101 c0 -5 7 -12 16 -15 14 -5 15 -4 4 9 -14 17 -20 19 -20 6z"/>
<path d="M5730 1086 c0 -2 7 -9 15 -16 13 -11 14 -10 9 4 -5 14 -24 23 -24 12z"/>
<path d="M5825 1081 c-3 -5 -2 -12 3 -15 5 -3 9 1 9 9 0 17 -3 19 -12 6z"/>
<path d="M1130 1060 c-11 -20 3 -30 15 -10 4 6 12 7 18 3 7 -4 6 0 -2 10 -17
21 -18 21 -31 -3z"/>
<path d="M984 1062 c-9 -5 -8 -10 1 -19 11 -10 13 -9 12 7 -1 11 -1 20 -2 20
0 0 -5 -4 -11 -8z"/>
<path d="M1031 1028 c-9 -15 -8 -18 6 -18 9 0 13 3 10 7 -4 3 1 11 9 18 14 10
14 12 2 12 -9 0 -20 -9 -27 -19z"/>
<path d="M1035 990 c3 -5 8 -10 11 -10 2 0 4 5 4 10 0 6 -5 10 -11 10 -5 0 -7
-4 -4 -10z"/>
<path d="M1075 980 c3 -5 8 -10 11 -10 2 0 4 5 4 10 0 6 -5 10 -11 10 -5 0 -7
-4 -4 -10z"/>
<path d="M5656 977 c3 -10 9 -15 12 -12 3 3 0 11 -7 18 -10 9 -11 8 -5 -6z"/>
<path d="M1105 960 c-3 -5 -1 -10 4 -10 6 0 11 5 11 10 0 6 -2 10 -4 10 -3 0
-8 -4 -11 -10z"/>
<path d="M1096 928 c3 -4 9 -8 15 -8 5 0 9 4 9 8 0 5 -7 9 -15 9 -8 0 -12 -4
-9 -9z"/>
<path d="M5509 923 c-8 -9 -9 -14 -2 -10 6 4 13 1 16 -5 3 -7 4 -3 4 10 -1 26
-1 26 -18 5z"/>
<path d="M1133 912 c1 -17 7 -21 24 -19 12 2 25 6 28 10 3 4 2 5 -2 2 -3 -3
-12 0 -20 6 -7 6 -13 8 -13 3 0 -5 -5 -2 -10 6 -7 12 -9 10 -7 -8z"/>
<path d="M5666 922 c-3 -5 1 -9 9 -9 8 0 12 4 9 9 -3 4 -7 8 -9 8 -2 0 -6 -4
-9 -8z"/>
<path d="M5467 909 c7 -9 10 -19 6 -22 -3 -4 -1 -7 5 -7 17 0 15 16 -5 31 -16
12 -17 12 -6 -2z"/>
<path d="M1300 894 c0 -8 5 -12 10 -9 6 4 8 11 5 16 -9 14 -15 11 -15 -7z"/>
<path d="M1333 885 c-10 -10 -10 -15 0 -23 9 -8 12 -4 13 14 1 13 1 24 0 24 0
-1 -6 -7 -13 -15z"/>
<path d="M5638 893 c6 -2 9 -10 6 -15 -4 -7 -2 -8 5 -4 13 9 5 26 -12 25 -9 0
-8 -2 1 -6z"/>
<path d="M1224 872 c-13 -8 -15 -42 -3 -42 14 0 21 20 7 21 -7 0 -4 4 6 8 11
4 15 10 10 14 -6 3 -15 3 -20 -1z"/>
<path d="M5526 872 c-3 -4 4 -9 15 -9 23 -2 25 3 4 10 -8 4 -16 3 -19 -1z"/>
<path d="M5591 861 c-9 -6 -10 -11 -2 -15 6 -4 11 -2 11 4 0 6 5 8 12 4 7 -4
8 -3 4 4 -8 14 -7 14 -25 3z"/>
<path d="M1374 852 c3 -5 0 -13 -6 -15 -9 -4 -10 -6 -1 -6 17 -1 25 16 12 25
-7 4 -9 3 -5 -4z"/>
<path d="M1250 836 c0 -2 8 -10 18 -17 15 -13 16 -12 3 4 -13 16 -21 21 -21
13z"/>
<path d="M5516 827 c3 -10 9 -15 12 -12 3 3 0 11 -7 18 -10 9 -11 8 -5 -6z"/>
<path d="M1236 811 c-3 -5 1 -11 9 -15 8 -3 15 -1 15 4 0 13 -18 22 -24 11z"/>
<path d="M5545 810 c3 -5 8 -10 11 -10 2 0 4 5 4 10 0 6 -5 10 -11 10 -5 0 -7
-4 -4 -10z"/>
<path d="M5350 800 c-9 -6 -10 -10 -3 -10 6 0 15 5 18 10 8 12 4 12 -15 0z"/>
<path d="M5435 800 c3 -5 8 -10 11 -10 2 0 4 5 4 10 0 6 -5 10 -11 10 -5 0 -7
-4 -4 -10z"/>
<path d="M5488 793 c10 -4 9 -10 -5 -27 l-18 -21 22 19 c23 19 22 37 0 35 -8
0 -8 -2 1 -6z"/>
<path d="M5416 778 c5 -8 2 -9 -10 -5 -10 4 -15 3 -11 -4 4 -5 1 -18 -7 -27
-12 -16 -11 -16 7 -2 41 31 46 38 29 44 -10 4 -13 2 -8 -6z"/>
<path d="M5350 776 c0 -2 7 -7 16 -10 8 -3 12 -2 9 4 -6 10 -25 14 -25 6z"/>
<path d="M1350 760 c-9 -6 -10 -10 -3 -10 6 0 15 5 18 10 8 12 4 12 -15 0z"/>
<path d="M1506 762 c-3 -5 1 -9 9 -9 8 0 12 4 9 9 -3 4 -7 8 -9 8 -2 0 -6 -4
-9 -8z"/>
<path d="M1318 740 c12 -12 28 -20 35 -17 7 2 -4 12 -23 22 l-35 17 23 -22z"/>
<path d="M5340 756 c0 -2 7 -7 16 -10 8 -3 12 -2 9 4 -6 10 -25 14 -25 6z"/>
<path d="M1422 735 c-7 -8 -8 -15 -3 -15 5 0 13 5 16 10 4 6 11 7 17 4 7 -4 8
-2 4 4 -9 16 -18 15 -34 -3z"/>
<path d="M5333 729 c9 -6 14 -15 11 -21 -4 -7 -2 -8 5 -4 14 9 -3 36 -23 36
-6 0 -3 -5 7 -11z"/>
<path d="M5211 716 c-9 -11 -10 -20 -1 -35 6 -12 13 -21 16 -21 2 0 0 9 -6 21
-15 27 -6 36 17 18 17 -13 17 -13 3 6 -8 11 -15 21 -16 23 -1 1 -7 -4 -13 -12z"/>
<path d="M5411 719 c-13 -5 -20 -13 -15 -17 5 -4 13 -11 17 -17 5 -6 7 -3 3 8
-5 15 5 22 27 18 5 -1 6 3 2 9 -3 5 -7 10 -8 9 -1 0 -13 -5 -26 -10z"/>
<path d="M1470 690 c0 -5 5 -10 11 -10 5 0 7 5 4 10 -3 6 -8 10 -11 10 -2 0
-4 -4 -4 -10z"/>
<path d="M1528 693 c7 -3 16 -2 19 1 4 3 -2 6 -13 5 -11 0 -14 -3 -6 -6z"/>
<path d="M5290 696 c0 -2 8 -10 18 -17 15 -13 16 -12 3 4 -13 16 -21 21 -21
13z"/>
<path d="M5156 682 c-3 -4 4 -9 15 -9 23 -2 25 3 4 10 -8 4 -16 3 -19 -1z"/>
<path d="M1480 659 c0 -5 5 -7 10 -4 6 3 10 8 10 11 0 2 -4 4 -10 4 -5 0 -10
-5 -10 -11z"/>
<path d="M5330 662 c0 -4 10 -9 22 -9 18 -2 20 0 8 7 -18 12 -30 13 -30 2z"/>
<path d="M1639 643 c-13 -16 -12 -17 4 -4 16 13 21 21 13 21 -2 0 -10 -8 -17
-17z"/>
<path d="M5091 636 c-15 -17 -1 -28 19 -15 11 6 12 9 2 9 -7 0 -10 5 -7 10 9
15 -1 12 -14 -4z"/>
<path d="M5160 642 c0 -6 -7 -9 -15 -6 -8 4 -15 2 -15 -4 0 -17 28 -21 34 -5
4 9 4 18 1 21 -3 3 -5 0 -5 -6z"/>
<path d="M5226 633 c-6 -14 -5 -15 5 -6 7 7 10 15 7 18 -3 3 -9 -2 -12 -12z"/>
<path d="M1476 625 c10 -8 24 -14 29 -14 6 0 1 6 -9 14 -11 8 -24 15 -30 15
-5 0 -1 -7 10 -15z"/>
<path d="M1528 633 c7 -3 16 -2 19 1 4 3 -2 6 -13 5 -11 0 -14 -3 -6 -6z"/>
<path d="M1567 623 c3 -7 8 -13 12 -13 4 0 8 6 8 13 0 8 -6 14 -13 14 -7 0
-10 -6 -7 -14z"/>
<path d="M1606 625 c4 -8 8 -15 10 -15 2 0 4 7 4 15 0 8 -4 15 -10 15 -5 0 -7
-7 -4 -15z"/>
<path d="M1639 613 c-13 -17 -13 -17 6 -3 11 8 22 16 24 17 2 2 0 3 -6 3 -6 0
-17 -8 -24 -17z"/>
<path d="M5183 623 c-15 -5 -17 -23 -4 -23 5 0 11 7 15 15 3 8 4 15 3 14 -1 0
-8 -3 -14 -6z"/>
<path d="M1526 612 c-3 -5 1 -9 9 -9 8 0 12 4 9 9 -3 4 -7 8 -9 8 -2 0 -6 -4
-9 -8z"/>
<path d="M5079 593 c11 -22 30 -38 35 -32 2 2 -8 15 -21 29 -23 23 -24 23 -14
3z"/>
<path d="M5127 594 c6 -15 23 -19 23 -5 0 5 -7 11 -14 14 -10 4 -13 1 -9 -9z"/>
<path d="M1566 589 c4 -8 -1 -9 -17 -5 -20 6 -21 5 -6 -4 10 -7 23 -8 33 -2
15 8 15 10 0 15 -11 4 -15 3 -10 -4z"/>
<path d="M5168 583 c7 -3 16 -2 19 1 4 3 -2 6 -13 5 -11 0 -14 -3 -6 -6z"/>
<path d="M1783 565 c0 -8 4 -15 9 -15 4 0 8 4 8 9 0 6 -4 12 -8 15 -5 3 -9 -1
-9 -9z"/>
<path d="M5016 568 c3 -4 11 -5 19 -1 21 7 19 12 -4 10 -11 0 -18 -5 -15 -9z"/>
<path d="M1590 560 c0 -5 7 -7 15 -4 8 4 15 8 15 10 0 2 -7 4 -15 4 -8 0 -15
-4 -15 -10z"/>
<path d="M1660 560 c0 -4 14 -7 30 -7 17 0 30 3 30 7 0 3 -13 6 -30 6 -16 0
-30 -3 -30 -6z"/>
<path d="M1630 552 c0 -11 51 -64 56 -59 3 3 -9 18 -26 35 -16 17 -30 27 -30
24z"/>
<path d="M4957 544 c6 -16 19 -18 27 -5 3 5 -3 11 -13 14 -14 3 -18 1 -14 -9z"/>
<path d="M5180 550 l25 -8 -24 -1 c-13 -1 -22 -4 -18 -7 8 -8 57 4 57 14 0 4
-15 8 -32 9 -30 1 -31 1 -8 -7z"/>
<path d="M1720 540 c-13 -8 -12 -10 3 -10 9 0 17 5 17 10 0 12 -1 12 -20 0z"/>
<path d="M1805 540 c-3 -5 -1 -10 4 -10 6 0 11 5 11 10 0 6 -2 10 -4 10 -3 0
-8 -4 -11 -10z"/>
<path d="M1825 518 c-20 -22 -30 -27 -38 -19 -15 15 -24 14 -24 -4 0 -8 5 -11
10 -8 5 3 13 0 17 -7 6 -9 14 -6 31 11 13 13 25 27 25 32 1 4 2 10 3 15 1 4 7
0 14 -8 11 -14 47 -26 47 -16 0 2 -13 11 -29 19 -28 14 -31 14 -56 -15z"/>
<path d="M5013 526 c14 -31 23 -33 23 -6 0 10 -2 17 -5 15 -2 -3 -10 0 -17 6
-10 8 -11 6 -1 -15z"/>
<path d="M1680 529 c0 -5 5 -7 10 -4 6 3 10 8 10 11 0 2 -4 4 -10 4 -5 0 -10
-5 -10 -11z"/>
<path d="M4940 525 c0 -10 -6 -12 -17 -8 -16 6 -16 5 -4 -10 16 -20 2 -23 -19
-4 -8 6 -4 -1 10 -16 13 -15 30 -25 37 -23 7 3 13 1 13 -4 0 -6 -5 -10 -11
-10 -5 0 -7 -4 -4 -10 9 -15 25 -12 25 5 0 9 7 13 18 9 9 -2 7 1 -6 7 -13 7
-21 18 -18 26 3 7 0 12 -7 10 -7 -1 -11 7 -9 21 2 12 1 22 -2 22 -3 0 -6 -7
-6 -15z m10 -45 c0 -5 -4 -10 -10 -10 -5 0 -10 5 -10 10 0 6 5 10 10 10 6 0
10 -4 10 -10z"/>
<path d="M4960 516 c0 -2 7 -7 16 -10 8 -3 12 -2 9 4 -6 10 -25 14 -25 6z"/>
<path d="M5050 509 c0 -4 8 -9 18 -11 10 -3 19 0 19 6 0 7 -9 12 -19 12 -10 0
-18 -3 -18 -7z"/>
<path d="M1720 490 c-13 -8 -12 -11 5 -24 24 -18 26 -19 45 -5 12 9 11 10 -7
6 -27 -6 -42 11 -22 24 8 5 10 9 4 9 -5 0 -17 -5 -25 -10z"/>
<path d="M1865 490 c-3 -6 1 -7 9 -4 9 3 16 1 16 -5 0 -6 -5 -11 -12 -11 -8 0
-6 -6 5 -17 14 -14 19 -15 29 -4 11 11 10 13 -4 8 -10 -4 -18 -2 -18 3 0 6 5
10 11 10 8 0 8 5 -1 15 -14 17 -26 19 -35 5z"/>
<path d="M1939 483 c-9 -10 -9 -14 -2 -10 7 5 17 -1 23 -13 6 -12 18 -19 25
-16 7 2 19 -2 26 -10 8 -10 15 -11 24 -4 9 8 15 8 20 0 3 -5 11 -10 17 -10 6
0 -1 9 -15 20 -31 25 -38 25 -31 3 3 -12 1 -11 -6 2 -14 25 -50 50 -50 34 0
-5 -5 -7 -10 -4 -6 4 -8 11 -5 16 10 15 -2 10 -16 -8z m51 -23 c0 -5 -4 -10
-10 -10 -5 0 -10 5 -10 10 0 6 5 10 10 10 6 0 10 -4 10 -10z"/>
<path d="M4830 489 c0 -4 -11 -10 -24 -13 -13 -3 -31 -17 -41 -32 -18 -29 -13
-43 9 -25 11 9 16 9 22 0 4 -7 3 -9 -4 -5 -6 3 -17 -3 -25 -14 -7 -11 -17 -17
-20 -13 -4 3 -7 1 -7 -4 0 -6 6 -14 13 -16 8 -4 8 -6 -3 -6 -10 -1 -8 -6 8
-17 24 -17 46 -10 38 12 -3 8 1 17 10 21 19 7 41 -12 25 -21 -6 -4 -11 -2 -11
3 0 6 -5 11 -10 11 -7 0 -7 -8 1 -22 6 -13 8 -20 4 -16 -5 4 -14 3 -21 -3 -9
-7 -19 -7 -36 1 -22 11 -22 10 -4 -4 23 -18 54 -13 74 13 7 9 15 15 17 14 14
-8 14 0 1 19 -21 29 -20 35 5 43 20 7 20 8 3 26 -11 13 -20 16 -24 9 -5 -7
-11 -6 -20 5 -10 13 -9 15 6 16 11 1 22 1 26 1 3 -1 8 4 11 12 3 7 -1 13 -9
13 -8 0 -14 -4 -14 -8z m8 -51 c12 4 12 0 -4 -20 -17 -24 -19 -25 -22 -6 -2
10 -10 22 -18 25 -8 3 -14 9 -14 15 0 5 10 2 21 -6 12 -8 28 -12 37 -8z m-48
-53 c-7 -9 -15 -13 -17 -11 -7 7 7 26 19 26 6 0 6 -6 -2 -15z"/>
<path d="M4870 490 c0 -5 5 -10 11 -10 5 0 7 -5 3 -12 -4 -7 -3 -8 5 -4 9 6 9
11 0 22 -14 17 -19 18 -19 4z"/>
<path d="M1820 480 c0 -5 5 -10 11 -10 5 0 7 5 4 10 -3 6 -8 10 -11 10 -2 0
-4 -4 -4 -10z"/>
<path d="M4990 480 c0 -5 7 -7 15 -4 8 4 15 8 15 10 0 2 -7 4 -15 4 -8 0 -15
-4 -15 -10z"/>
<path d="M5037 483 c-13 -13 -7 -33 11 -33 13 0 14 2 3 9 -7 5 -10 14 -7 20 8
12 3 15 -7 4z"/>
<path d="M5067 479 c7 -7 15 -10 18 -7 3 3 -2 9 -12 12 -14 6 -15 5 -6 -5z"/>
<path d="M1845 461 c-3 -5 -16 -8 -30 -5 -27 5 -44 -14 -24 -27 21 -13 29 -11
29 9 0 14 2 15 10 2 7 -11 10 -11 10 -2 0 7 4 11 8 8 5 -3 9 1 9 9 0 17 -3 19
-12 6z"/>
<path d="M1936 433 c7 -39 13 -41 12 -4 -1 17 -5 31 -9 31 -4 0 -5 -12 -3 -27z"/>
<path d="M4900 449 c0 -5 5 -7 10 -4 6 3 10 8 10 11 0 2 -4 4 -10 4 -5 0 -10
-5 -10 -11z"/>
<path d="M5000 426 c7 -7 13 -7 20 0 6 6 3 10 -10 10 -13 0 -16 -4 -10 -10z"/>
<path d="M1967 416 c-4 -10 -3 -15 3 -11 6 3 10 -1 10 -9 0 -10 -6 -13 -17
-10 -15 5 -16 4 -3 -5 22 -15 36 3 23 31 -8 19 -10 20 -16 4z"/>
<path d="M2086 415 c-9 -26 -7 -32 5 -12 6 10 9 21 6 23 -2 3 -7 -2 -11 -11z"/>
<path d="M4940 420 c0 -13 18 -22 24 -11 3 5 -1 11 -9 15 -8 3 -15 1 -15 -4z"/>
<path d="M1842 411 c-6 -3 0 -11 13 -17 19 -9 25 -9 29 3 3 8 11 11 17 7 7 -4
9 -3 6 3 -7 12 -49 14 -65 4z"/>
<path d="M2107 403 c-3 -5 5 -8 18 -8 13 0 21 3 18 8 -2 4 -10 7 -18 7 -8 0
-16 -3 -18 -7z"/>
<path d="M4888 389 c20 -23 21 -23 19 -1 0 10 -9 19 -18 19 -16 2 -17 0 -1
-18z"/>
<path d="M1921 385 c-1 -17 -3 -18 -11 -5 -8 13 -10 12 -10 -2 0 -10 6 -18 13
-18 6 0 38 -14 69 -30 34 -18 59 -26 63 -20 9 15 25 12 19 -4 -8 -21 14 -30
31 -12 22 21 20 42 -2 25 -14 -11 -15 -12 -9 -1 7 11 1 13 -28 9 -20 -3 -39
-1 -42 4 -3 5 -10 7 -15 4 -5 -3 -6 1 -3 10 4 9 3 15 -2 14 -20 -5 -63 14 -67
29 -4 13 -5 13 -6 -3z"/>
<path d="M2020 391 c0 -16 28 -33 35 -21 3 5 3 10 -2 10 -4 0 -1 5 7 10 12 8
9 10 -12 10 -16 0 -28 -4 -28 -9z"/>
<path d="M2160 385 c0 -8 2 -15 4 -15 2 0 6 7 10 15 3 8 1 15 -4 15 -6 0 -10
-7 -10 -15z"/>
<path d="M4870 376 c0 -9 5 -16 10 -16 6 0 10 4 10 9 0 6 -4 13 -10 16 -5 3
-10 -1 -10 -9z"/>
<path d="M2071 364 c0 -11 3 -14 6 -6 3 7 2 16 -1 19 -3 4 -6 -2 -5 -13z"/>
<path d="M2012 351 c4 -13 18 -16 19 -4 0 4 -5 9 -11 12 -7 2 -11 -2 -8 -8z"/>
<path d="M4620 340 c0 -4 6 -13 14 -20 12 -9 15 -8 13 8 -1 17 -27 28 -27 12z"/>
<path d="M2300 329 c0 -5 5 -7 10 -4 6 3 10 8 10 11 0 2 -4 4 -10 4 -5 0 -10
-5 -10 -11z"/>
<path d="M4531 333 c3 -21 -2 -34 -11 -28 -6 4 -7 12 -4 18 4 7 3 9 -1 4 -12
-10 -17 -50 -6 -43 5 3 8 -2 7 -12 -1 -11 5 -16 18 -14 10 2 15 -1 12 -7 -4
-5 -1 -13 5 -16 18 -12 22 3 7 24 -8 12 -18 18 -21 14 -4 -3 -7 1 -7 10 0 11
5 14 18 10 13 -5 14 -3 5 7 -6 7 -9 19 -6 26 3 8 0 14 -6 14 -6 0 -10 -3 -10
-7z"/>
<path d="M4580 321 c0 -7 -4 -9 -10 -6 -5 3 -10 2 -10 -4 0 -13 16 -22 24 -13
9 9 39 9 46 0 9 -11 25 -13 28 -3 1 6 -1 10 -5 10 -5 0 -14 4 -21 9 -7 4 -16
5 -19 2 -3 -3 -12 -1 -20 5 -10 9 -13 8 -13 0z"/>
<path d="M4420 305 c20 -25 48 -37 55 -25 4 6 1 9 -6 8 -7 -2 -13 3 -14 11 0
8 -11 16 -24 18 -21 3 -22 1 -11 -12z"/>
<path d="M4684 305 c18 -14 18 -15 -9 -25 -19 -7 -31 -7 -41 1 -17 14 -35 3
-28 -19 5 -14 4 -14 -4 -2 -6 8 -9 17 -6 21 2 4 -5 7 -16 6 -20 -1 -29 -17
-10 -17 6 0 9 -3 9 -7 -4 -27 2 -32 26 -21 13 6 22 16 18 21 -4 7 1 8 12 4 19
-8 85 12 85 25 0 8 -34 28 -47 28 -4 0 1 -7 11 -15z"/>
<path d="M2120 270 c0 -6 7 -10 15 -10 8 0 15 2 15 4 0 2 -7 6 -15 10 -8 3
-15 1 -15 -4z"/>
<path d="M2585 230 c-4 -11 -13 -21 -21 -21 -30 -3 -34 -4 -34 -11 0 -41 1
-42 15 -18 8 14 14 19 15 11 0 -11 3 -11 17 0 15 12 16 12 10 -4 -4 -10 -7
-21 -7 -24 0 -3 -7 0 -15 7 -8 7 -15 8 -15 2 0 -5 6 -15 14 -21 11 -9 15 -9
20 1 3 7 4 1 1 -14 -4 -23 -2 -26 15 -23 11 2 20 1 20 -3 0 -4 13 -8 29 -8 24
-1 27 1 18 11 -7 7 -13 9 -15 5 -5 -14 -29 0 -46 25 -18 28 -11 56 11 48 16
-6 43 20 43 41 0 6 -7 0 -16 -12 -15 -21 -42 -32 -29 -12 3 6 2 10 -4 10 -5 0
-12 -5 -14 -10 -3 -6 -4 -5 -3 2 2 7 13 12 25 10 29 -3 23 20 -6 24 -15 3 -24
-3 -28 -16z"/>
<path d="M2654 195 c-15 -23 -15 -28 -3 -36 11 -7 11 -9 -3 -9 -10 0 -18 7
-18 15 0 8 -4 15 -10 15 -14 0 -12 -11 5 -34 8 -11 18 -17 21 -13 4 4 13 2 21
-4 9 -9 13 -8 13 0 0 15 27 14 36 -1 5 -8 2 -9 -9 -5 -23 9 -17 -16 6 -25 9
-4 19 -6 21 -5 1 1 11 -5 22 -13 17 -14 18 -14 6 2 -12 15 -11 17 7 15 12 -1
21 -7 21 -14 0 -17 25 -17 39 1 6 7 22 11 36 8 21 -4 24 -1 19 14 -4 11 -3 16
2 11 5 -5 9 -19 9 -32 1 -19 -2 -22 -16 -15 -9 5 -19 6 -23 3 -3 -3 -6 -1 -6
6 0 7 -4 9 -10 6 -18 -11 -11 -25 13 -24 12 0 38 -2 57 -5 27 -4 31 -3 18 5
-21 12 -23 39 -5 58 10 11 10 13 0 7 -7 -4 -19 -4 -25 1 -7 4 -25 6 -40 4 -38
-4 -36 17 2 31 25 8 28 13 19 24 -6 8 -16 14 -21 14 -6 0 -5 -7 2 -15 8 -10 9
-15 2 -15 -6 0 -15 7 -20 16 -8 15 -10 15 -15 0 -4 -10 -3 -15 3 -11 6 3 10 1
10 -4 0 -6 -7 -11 -15 -11 -9 0 -15 6 -14 13 4 29 -1 39 -13 30 -18 -14 -92
-11 -111 5 -13 11 -18 9 -33 -13z m75 -10 c15 3 21 0 18 -8 -3 -7 -10 -11 -17
-9 -7 2 -10 -3 -7 -12 5 -13 2 -13 -20 -5 -41 15 -45 20 -32 35 8 10 15 11 24
4 6 -5 22 -8 34 -5z m57 -21 c-9 -23 3 -37 20 -23 10 8 14 8 14 0 0 -6 -6 -11
-12 -11 -8 0 -6 -5 4 -11 10 -5 15 -16 12 -24 -8 -21 -24 -19 -24 4 0 10 -11
26 -24 36 -25 19 -25 45 1 45 10 0 13 -6 9 -16z m-20 -39 c9 -8 11 -15 5 -15
-5 0 -13 5 -16 10 -4 6 -11 7 -17 4 -7 -4 -8 -2 -4 4 9 16 14 15 32 -3z"/>
<path d="M2680 170 c20 -13 33 -13 25 0 -3 6 -14 10 -23 10 -15 0 -15 -2 -2
-10z"/>
<path d="M4160 211 c0 -5 7 -11 15 -15 8 -3 15 -1 15 3 0 5 -7 11 -15 15 -8 3
-15 1 -15 -3z"/>
<path d="M2419 206 c-6 -6 -3 -46 3 -46 4 0 8 5 8 11 0 5 4 8 9 4 5 -3 12 -1
16 5 3 5 1 10 -5 10 -6 0 -9 4 -6 8 4 6 -19 13 -25 8z"/>
<path d="M4210 206 c0 -2 8 -10 18 -17 15 -13 16 -12 3 4 -13 16 -21 21 -21
13z"/>
<path d="M2494 170 c0 -17 3 -30 7 -30 8 0 6 47 -3 55 -2 3 -4 -9 -4 -25z"/>
<path d="M3910 191 c0 -17 18 -21 24 -6 3 9 0 15 -9 15 -8 0 -15 -4 -15 -9z"/>
<path d="M3780 170 c0 -5 4 -10 9 -10 6 0 13 5 16 10 3 6 -1 10 -9 10 -9 0
-16 -4 -16 -10z"/>
<path d="M2456 162 c-3 -5 1 -9 9 -9 8 0 15 4 15 9 0 4 -4 8 -9 8 -6 0 -12 -4
-15 -8z"/>
<path d="M3620 150 c0 -13 11 -13 30 0 12 8 11 10 -7 10 -13 0 -23 -4 -23 -10z"/>
<path d="M2528 138 c17 -17 42 -19 35 -2 -3 8 -15 14 -26 14 -16 0 -18 -3 -9
-12z"/>
<path d="M3125 140 c-3 -5 1 -10 9 -10 8 0 18 5 21 10 3 6 -1 10 -9 10 -8 0
-18 -4 -21 -10z"/>
<path d="M3893 131 c-10 -15 -9 -20 1 -24 9 -4 14 3 14 19 0 29 0 29 -15 5z"/>
<path d="M3400 121 c-20 -6 -22 -8 -9 -13 9 -4 22 -1 29 5 10 9 12 8 7 -5 -4
-10 -2 -18 3 -18 6 0 10 -5 10 -11 0 -5 -4 -8 -8 -5 -4 2 -14 0 -22 -5 -13 -8
-13 -11 0 -22 8 -7 16 -19 18 -27 2 -11 -1 -11 -11 2 -8 10 -19 18 -25 18 -5
0 -8 10 -6 23 4 20 4 20 -4 2 -12 -27 -4 -55 14 -48 8 3 14 0 14 -6 0 -6 7
-11 15 -11 21 0 19 37 -2 49 -18 10 -16 12 10 15 12 2 12 46 -1 57 -4 3 -18 3
-32 0z"/>
<path d="M2960 110 c0 -5 5 -10 11 -10 5 0 7 5 4 10 -3 6 -8 10 -11 10 -2 0
-4 -4 -4 -10z"/>
<path d="M2985 98 c-24 -13 -35 -28 -35 -48 0 -10 3 -11 12 -2 8 8 17 7 37 -6
28 -20 45 -22 58 -8 5 6 2 6 -6 1 -11 -6 -13 -4 -8 9 4 10 7 20 7 22 0 2 5 4
11 4 5 0 8 -4 5 -8 -8 -14 12 -38 23 -27 20 20 16 37 -9 40 -14 2 -32 5 -40 7
-8 1 -15 -3 -16 -9 -1 -7 -2 -18 -3 -24 0 -5 -6 -7 -12 -3 -8 5 -8 9 1 14 9 5
9 9 1 14 -6 4 -11 3 -11 -3 0 -5 -9 -9 -19 -8 -11 0 -17 5 -15 9 3 5 10 6 15
3 5 -4 12 1 15 10 6 13 8 14 15 3 6 -9 9 -9 9 -1 0 18 -13 22 -35 11z m110
-38 c-3 -5 -12 -10 -18 -10 -7 0 -6 4 3 10 19 12 23 12 15 0z"/>
<path d="M3753 66 c-9 -5 -25 -9 -36 -10 -11 -1 -22 -7 -25 -15 -3 -8 1 -11 9
-8 66 27 88 30 104 13 9 -9 26 -16 38 -16 20 1 20 2 4 11 -9 6 -15 14 -12 19
3 5 0 12 -6 16 -9 5 -10 0 -6 -15 4 -18 3 -20 -9 -10 -7 6 -12 14 -10 18 7 10
-32 8 -51 -3z"/>
<path d="M3115 60 c-4 -6 -2 -17 5 -25 9 -10 7 -14 -7 -18 -14 -4 -13 -5 5 -6
17 -1 22 4 22 23 0 27 -15 42 -25 26z"/>
</g>
</svg>
