<?xml version="1.0" standalone="no"?>
<!DOCTYPE svg PUBLIC "-//W3C//DTD SVG 20010904//EN"
 "http://www.w3.org/TR/2001/REC-SVG-20010904/DTD/svg10.dtd">
<svg version="1.0" xmlns="http://www.w3.org/2000/svg"
 width="1024.000000pt" height="1024.000000pt" viewBox="0 0 1024.000000 1024.000000"
 preserveAspectRatio="xMidYMid meet">
<metadata>
Created by potrace 1.14, written by Peter Selinger 2001-2017
</metadata>
<g transform="translate(0.000000,1024.000000) scale(0.100000,-0.100000)"
fill="#000000" stroke="none">
<path d="M0 5120 l0 -5120 5120 0 5120 0 0 5120 0 5120 -5120 0 -5120 0 0
-5120z m5308 3528 c9 -9 12 -68 12 -205 l0 -194 -62 3 -63 3 3 190 c3 160 6
192 20 203 20 15 74 16 90 0z m-248 -312 l0 -84 -87 -7 c-245 -19 -589 -103
-863 -210 -124 -48 -391 -180 -503 -247 -249 -151 -492 -353 -719 -598 -231
-249 -445 -583 -571 -890 -106 -261 -198 -618 -223 -872 l-7 -68 -80 0 -80 0
7 78 c24 271 90 581 172 810 202 562 615 1102 1149 1502 353 264 679 424 1132
555 207 60 487 111 626 114 l47 1 0 -84z m595 64 c310 -31 680 -139 1068 -313
149 -67 412 -232 617 -388 452 -342 841 -854 1043 -1374 69 -177 151 -479 182
-665 17 -106 33 -288 26 -295 -2 -3 -37 -5 -77 -5 -78 0 -84 4 -84 60 0 100
-91 482 -170 713 -141 414 -329 726 -664 1101 -196 219 -524 471 -826 637
-347 189 -774 324 -1152 365 l-158 18 0 76 c0 42 3 80 7 83 3 4 22 5 42 2 20
-3 86 -10 146 -15z m-693 -426 c1 -36 0 -68 -4 -70 -13 -8 -278 -47 -284 -42
-7 8 -23 122 -18 127 4 5 252 48 286 50 13 1 17 -11 20 -65z m787 40 c51 -8
97 -17 101 -19 7 -4 4 -29 -15 -111 l-5 -21 -142 22 c-135 20 -143 22 -142 43
0 12 1 42 2 67 l2 44 53 -5 c28 -3 94 -12 146 -20z m-451 -30 l22 -15 0 -500
0 -499 -59 0 -59 0 -5 43 c-7 71 -8 693 -1 835 6 123 9 134 28 142 32 13 49
12 74 -6z m-802 -95 c7 -30 14 -59 14 -66 0 -6 -33 -21 -72 -33 -40 -13 -92
-29 -116 -36 l-43 -13 -25 55 c-13 30 -24 58 -24 63 0 14 236 95 248 86 2 -2
10 -27 18 -56z m1665 22 c57 -21 105 -43 106 -48 2 -5 -8 -35 -21 -66 l-25
-56 -103 35 c-56 19 -106 38 -111 43 -5 5 -3 35 4 70 10 45 17 61 30 61 9 0
63 -17 120 -39z m-2073 -169 c12 -31 24 -61 25 -65 1 -5 -37 -26 -85 -46 l-87
-38 -35 58 -35 59 87 45 c48 24 92 44 97 44 6 1 20 -25 33 -57z m2461 17 c44
-22 81 -44 81 -49 0 -6 -14 -33 -32 -62 -17 -29 -32 -54 -32 -55 -4 -7 -168
80 -172 91 -7 19 43 116 60 116 8 0 50 -18 95 -41z m-2798 -210 c17 -27 30
-51 28 -53 -7 -7 -123 -91 -136 -99 -12 -8 -96 99 -91 115 2 5 35 31 73 57 79
55 77 55 126 -20z m3134 19 c53 -37 74 -57 70 -67 -9 -23 -69 -100 -78 -101
-11 0 -120 75 -136 94 -12 14 -9 24 23 71 20 30 38 55 41 55 3 0 39 -23 80
-52z m-2181 -85 c7 -27 11 -51 7 -55 -3 -3 -41 -16 -83 -28 -211 -58 -558
-214 -558 -251 0 -4 23 -43 50 -85 28 -42 50 -82 50 -88 0 -6 -7 -22 -16 -34
-12 -17 -24 -22 -47 -20 -29 3 -41 17 -117 129 -47 70 -97 141 -112 158 -44
51 -36 90 21 104 20 5 32 -2 62 -34 l36 -39 104 61 c57 34 136 75 174 92 61
26 388 136 407 137 4 0 14 -21 22 -47z m1331 -17 c150 -50 298 -117 401 -181
40 -25 74 -45 77 -45 3 0 15 16 27 34 24 40 48 50 91 41 39 -9 58 -46 38 -73
-8 -11 -46 -62 -85 -113 -39 -52 -85 -119 -103 -150 -34 -62 -62 -77 -98 -54
-45 30 -37 71 34 164 18 24 33 49 33 55 0 13 -155 100 -266 149 -79 34 -294
107 -362 122 -24 5 -32 11 -28 23 3 10 8 31 12 47 4 17 8 33 10 36 6 10 76 -8
219 -55z m-2591 -127 l39 -50 -24 -16 c-13 -9 -66 -57 -117 -107 l-92 -90 -45
44 c-25 24 -45 50 -45 56 0 13 225 214 238 214 4 -1 24 -23 46 -51z m3801 -52
c63 -55 115 -102 115 -105 -1 -4 -20 -28 -44 -54 l-43 -47 -99 90 c-55 50
-107 99 -118 109 -18 18 -18 19 20 64 21 25 42 45 46 44 4 -2 59 -47 123 -101z
m-3366 -191 l31 -39 -39 -26 c-81 -54 -247 -208 -339 -315 -91 -106 -243 -323
-257 -366 -6 -20 -7 -20 -44 -1 -69 36 -69 41 -8 133 76 117 219 299 306 391
101 105 305 276 317 265 1 -2 16 -21 33 -42z m2930 -59 c112 -89 289 -272 361
-375 141 -200 181 -264 171 -275 -5 -7 -26 -21 -47 -32 -36 -19 -37 -19 -48
-1 -47 80 -150 225 -220 310 -94 114 -269 286 -336 331 -86 56 -84 53 -47 96
17 21 37 37 44 36 6 -1 61 -41 122 -90z m-1932 -40 l124 -122 -40 -44 -40 -43
-58 53 c-32 29 -92 86 -134 127 l-76 74 35 39 c19 21 42 39 50 39 8 0 70 -55
139 -123z m-1794 9 l48 -43 -24 -25 c-13 -14 -45 -53 -72 -87 -26 -33 -50 -61
-52 -61 -2 0 -16 11 -31 24 -15 13 -37 33 -49 43 l-22 18 70 88 c38 48 73 87
77 87 4 -1 28 -20 55 -44z m4472 -32 c33 -42 63 -81 67 -88 7 -13 -76 -90 -91
-84 -4 2 -38 39 -74 82 l-66 79 47 43 c26 24 49 43 52 44 3 0 33 -34 65 -76z
m-1466 -110 c7 -30 11 -58 8 -60 -2 -3 -47 -16 -98 -30 -52 -14 -175 -50 -274
-79 -367 -109 -485 -138 -511 -126 -16 7 -24 19 -24 36 0 45 17 63 76 80 60
17 66 34 18 48 -44 12 -104 -11 -131 -52 -26 -39 -29 -86 -9 -133 8 -18 17
-45 21 -60 9 -43 61 -96 103 -104 28 -6 47 -1 87 20 107 56 135 53 65 -7 -120
-103 -316 -64 -385 76 -35 72 -41 131 -21 201 44 151 207 222 351 151 32 -15
62 -39 72 -56 13 -22 22 -27 38 -22 40 14 580 171 591 172 6 1 16 -24 23 -55z
m-2874 -100 c41 -31 75 -59 75 -63 -1 -3 -16 -23 -35 -45 l-35 -39 -52 37
c-29 20 -68 49 -86 64 l-34 28 34 41 c18 23 39 40 45 38 7 -2 46 -30 88 -61z
m4218 23 l27 -42 -32 -28 c-18 -15 -57 -44 -87 -65 l-53 -37 -29 35 c-16 19
-29 39 -29 45 0 9 26 31 130 114 35 28 41 26 73 -22z m-4613 -76 c0 -4 16 -15
35 -24 19 -9 35 -21 35 -27 0 -12 -74 -159 -92 -182 -12 -16 -17 -15 -70 18
-32 20 -58 39 -58 43 0 9 88 152 107 173 14 15 43 15 43 -1z m4948 -23 c31
-47 82 -134 82 -141 0 -11 -113 -78 -121 -70 -4 4 -30 45 -57 90 l-50 82 52
40 c28 22 54 40 58 40 4 1 20 -18 36 -41z m216 -394 c26 -53 46 -98 44 -99 -2
-1 -30 -16 -64 -33 l-61 -31 -42 92 c-22 51 -41 97 -41 102 0 9 92 62 111 64
3 1 27 -42 53 -95z m-4906 -215 c-77 -40 -73 15 -76 -907 l-3 -823 298 3 c293
3 299 4 366 30 l67 26 0 -224 0 -224 -617 1 c-369 0 -609 4 -596 9 55 22 53
-13 53 1039 0 661 -4 979 -11 1000 -6 17 -26 44 -45 61 l-35 30 318 0 318 -1
-37 -20z m1376 2 c-18 -11 -39 -30 -48 -42 -33 -47 -27 -74 143 -684 34 -121
84 -301 111 -400 77 -276 91 -320 100 -304 4 8 75 217 158 464 151 451 295
865 326 940 21 50 19 53 90 -146 113 -319 148 -425 280 -829 75 -228 140 -422
146 -430 7 -12 10 -11 15 5 4 11 11 31 15 45 5 14 36 122 69 240 54 195 85
308 236 854 59 210 57 241 -20 288 -29 18 -24 18 315 18 l345 -1 -37 -19 c-75
-40 -72 -32 -262 -695 -63 -220 -174 -605 -247 -855 -72 -250 -139 -481 -147
-512 l-16 -58 -222 0 -222 0 -46 133 c-25 72 -94 276 -152 452 -58 176 -110
327 -114 335 -13 22 -24 -9 -185 -490 l-141 -425 -219 0 -219 0 -54 180 c-29
99 -85 286 -124 415 -98 326 -143 480 -264 900 -170 589 -164 573 -229 611
-19 12 -35 23 -35 25 0 2 154 4 343 4 341 0 342 0 311 -19z m3055 -4 c-73 -48
-69 2 -69 -910 l0 -819 218 4 c221 4 239 7 345 53 16 7 17 -7 17 -219 l0 -226
-542 0 c-334 0 -537 4 -528 9 8 6 18 7 24 4 5 -3 6 -1 2 5 -4 7 0 22 8 34 14
20 16 131 16 1003 0 960 0 981 -20 1013 -11 18 -34 41 -52 52 l-33 20 324 0
324 0 -34 -23z m619 -174 c31 -124 54 -238 67 -335 l6 -48 -65 0 c-74 0 -65
-13 -87 135 -6 44 -26 134 -45 199 -19 66 -33 125 -30 132 5 12 78 42 106 43
12 1 24 -31 48 -126z m-5850 -809 c29 -20 31 -79 3 -94 -13 -6 -144 -10 -358
-10 -290 0 -342 2 -361 16 -26 18 -29 60 -5 86 15 17 39 18 357 18 293 0 345
-2 364 -16z m6162 -44 l0 -60 -160 0 -161 0 2 60 2 60 158 0 159 0 0 -60z
m516 35 c18 -19 23 -31 19 -48 -13 -43 -30 -47 -192 -47 l-153 0 0 60 0 60
150 0 c148 0 151 -1 176 -25z m-6899 -351 c29 -6 29 -7 41 -102 25 -198 91
-462 168 -670 89 -243 258 -548 435 -785 48 -65 86 -124 83 -131 -3 -7 2 -16
12 -20 14 -6 15 -4 4 11 -7 10 12 -9 43 -42 30 -33 52 -64 49 -69 -3 -5 0 -6
6 -2 13 8 44 -33 35 -47 -3 -6 -1 -7 4 -4 6 4 16 1 22 -7 7 -8 8 -16 4 -18 -4
-3 -3 -3 4 -2 15 4 35 -20 25 -30 -4 -4 -2 -6 4 -4 16 5 126 -101 118 -114 -4
-7 -2 -8 5 -4 6 4 39 -17 79 -52 101 -88 414 -308 468 -329 8 -3 11 -10 7 -16
-3 -6 -1 -7 6 -3 6 4 33 -6 59 -21 26 -16 55 -32 66 -36 13 -5 15 -11 8 -20
-8 -9 -5 -19 10 -37 l20 -25 -16 27 c-25 42 -4 42 86 0 46 -21 118 -51 160
-67 68 -26 77 -32 72 -50 -6 -19 -6 -19 8 -1 13 16 16 17 29 4 7 -8 21 -13 31
-10 10 2 18 -1 18 -7 0 -6 -4 -12 -10 -12 -16 -2 -22 -5 -64 -23 -42 -19 -44
-33 -2 -17 31 12 57 5 50 -14 -3 -7 8 -21 25 -31 32 -19 33 -35 1 -27 -11 3
-17 9 -15 13 8 14 -45 4 -58 -10 -10 -10 -6 -11 21 -7 25 5 32 3 32 -9 0 -11
9 -14 40 -10 22 3 42 0 46 -5 10 -17 41 19 39 44 -2 20 2 23 31 24 19 1 37 -3
40 -9 3 -5 -2 -8 -11 -6 -10 2 -20 -2 -22 -8 -2 -7 8 -9 29 -6 l32 5 -34 28
c-36 30 -50 36 -50 19 0 -5 -7 -10 -16 -10 -9 0 -12 5 -8 13 4 6 -2 3 -14 -7
-22 -19 -32 -10 -11 11 8 8 7 13 -2 18 -8 5 -10 4 -5 -3 4 -7 3 -12 -3 -12 -5
0 -12 4 -15 9 -7 11 -46 2 -46 -11 0 -5 9 -4 20 2 17 9 20 8 20 -9 0 -10 8
-22 17 -25 15 -6 15 -9 3 -17 -13 -9 -12 -10 2 -6 17 6 42 -15 31 -26 -10 -11
-25 -8 -18 2 3 6 -4 8 -15 6 -19 -4 -24 5 -21 33 1 6 -3 12 -9 12 -6 0 -8 5
-4 11 5 8 1 8 -14 0 -28 -15 -35 -14 -28 4 3 9 -1 18 -9 21 -8 4 -15 11 -15
17 0 6 3 7 7 4 3 -4 17 0 30 8 16 11 29 13 41 7 9 -5 41 -15 70 -22 28 -6 52
-16 52 -21 0 -4 6 -6 13 -4 6 2 41 -4 77 -15 36 -10 61 -19 56 -19 -11 -1 13
-31 25 -31 5 0 6 7 2 16 -4 12 0 14 23 9 49 -11 56 -14 49 -25 -3 -5 -2 -10 4
-10 5 0 11 4 13 9 3 9 201 -18 206 -29 1 -3 21 -4 43 -2 28 3 39 1 35 -6 -4
-6 -20 -9 -36 -7 -30 4 -40 -8 -19 -21 8 -4 7 -9 -2 -15 -7 -4 -11 -11 -7 -14
8 -8 39 25 33 35 -3 5 8 4 25 -1 17 -6 38 -8 48 -4 15 7 14 9 -8 16 -18 6 -13
7 20 4 25 -2 48 -4 53 -4 4 -1 7 -35 7 -76 0 -73 -1 -75 -25 -75 -20 0 -25 5
-25 24 0 28 -15 42 -26 24 -4 -6 -2 -14 4 -16 7 -2 12 -8 12 -14 0 -9 -85 -10
-103 -1 -4 2 -37 6 -75 8 -54 4 -204 31 -327 60 -11 3 -33 7 -48 11 -22 4 -26
10 -22 25 5 15 1 19 -16 19 -18 0 -19 -2 -9 -15 16 -19 11 -19 -74 6 -187 54
-355 117 -316 119 13 0 13 1 0 10 -9 6 -17 5 -21 -2 -4 -7 -12 -7 -24 -1 -15
9 -15 11 -1 26 22 22 21 44 -1 26 -9 -8 -14 -9 -10 -3 3 6 0 11 -6 11 -7 0
-14 -9 -14 -19 -1 -11 3 -16 9 -12 7 4 8 2 4 -4 -10 -16 -37 -3 -34 16 2 9 -3
17 -9 18 -7 1 -16 3 -20 4 -5 1 -11 2 -15 1 -4 0 -4 7 -1 16 4 11 3 14 -5 9
-19 -11 -14 -24 16 -41 26 -15 26 -16 2 -9 -29 7 -101 46 -96 51 2 2 15 -1 30
-6 17 -7 26 -7 26 0 0 5 -8 13 -17 16 -10 4 -21 11 -25 17 -5 7 -8 5 -8 -4 0
-13 -1 -13 -10 0 -8 13 -10 12 -10 -3 0 -20 -24 -18 -26 1 -1 7 -3 15 -4 20
-1 4 -2 10 -1 15 1 10 -11 9 -29 -3 -13 -8 -13 -10 2 -10 9 0 20 -4 23 -10 13
-22 -17 -7 -151 73 -190 114 -257 158 -250 164 3 3 12 0 21 -7 8 -7 15 -8 15
-2 0 12 -29 24 -41 16 -16 -9 -33 7 -18 18 10 7 9 8 -6 4 -35 -10 -373 271
-358 298 3 6 2 8 -2 3 -11 -10 -126 103 -118 116 3 6 1 7 -4 4 -14 -9 -106 90
-97 105 4 6 3 8 -3 5 -6 -4 -16 0 -23 8 -9 11 -9 15 -1 15 7 0 10 4 6 10 -3 5
-11 7 -18 5 -17 -5 -121 121 -111 136 4 7 3 9 -4 5 -13 -8 -35 28 -24 39 4 5
2 5 -4 2 -12 -7 -97 107 -97 129 0 8 -3 12 -6 9 -8 -9 -62 85 -55 97 5 7 2 8
-6 3 -10 -6 -12 -4 -7 8 3 9 2 16 -4 14 -5 -1 -28 30 -50 68 -179 314 -314
722 -361 1093 -20 151 -21 174 -8 182 17 11 74 13 117 4z m6533 -33 c0 -58
-28 -261 -51 -372 -81 -394 -229 -741 -468 -1104 -135 -204 -330 -435 -368
-435 -13 0 -14 -3 -6 -8 9 -5 -14 -34 -72 -92 -47 -47 -85 -81 -85 -77 0 5
-11 -5 -25 -22 -43 -51 -254 -213 -266 -205 -7 4 -9 3 -6 -3 4 -5 -33 -37 -82
-70 -68 -48 -94 -60 -117 -57 -27 3 -27 3 -4 -4 23 -7 17 -13 -70 -64 -159
-93 -420 -217 -420 -198 0 5 8 10 17 12 15 3 15 4 -1 21 -10 10 -21 15 -24 12
-4 -3 0 -10 8 -15 11 -7 8 -11 -14 -19 -15 -6 -32 -8 -38 -5 -7 5 -8 2 -3 -5
4 -7 16 -11 26 -8 11 3 17 1 13 -4 -3 -5 -11 -9 -18 -9 -7 0 -26 -6 -42 -14
-16 -8 -40 -17 -54 -21 l-25 -8 20 22 c11 13 21 18 23 12 2 -5 10 -7 17 -4 11
3 12 10 5 23 -5 9 -6 21 -2 25 4 5 -1 5 -10 2 -10 -3 -20 -1 -24 5 -4 6 -3 8
4 4 6 -3 13 -2 17 3 3 6 12 8 19 5 8 -3 17 -1 21 5 3 6 2 11 -3 11 -5 0 -12 9
-15 21 -5 17 -2 20 14 16 10 -3 19 -1 19 4 0 4 7 6 15 3 25 -10 17 -25 -10
-20 -28 5 -32 -5 -10 -24 13 -11 14 -10 9 5 -6 14 -4 16 7 9 8 -4 24 -7 36 -6
11 2 24 -2 28 -7 10 -17 21 -13 21 8 0 16 -5 19 -28 14 -22 -4 -28 -2 -28 12
0 14 3 15 14 6 17 -14 47 -4 40 13 -5 14 23 43 32 33 9 -9 -6 -28 -17 -22 -5
4 -9 1 -9 -4 0 -6 6 -11 13 -11 8 0 7 -4 -3 -11 -12 -9 -11 -10 7 -6 16 4 20
1 16 -10 -4 -11 -1 -14 8 -11 8 3 14 12 14 21 0 23 11 31 32 23 17 -7 17 -8 0
-21 -12 -8 -14 -15 -8 -20 6 -3 11 -1 11 4 0 6 3 10 8 10 20 -3 21 3 6 26 -16
24 -16 27 1 39 19 14 12 40 -8 33 -7 -2 -20 0 -31 5 -13 7 -16 7 -12 -1 4 -6
2 -11 -3 -11 -6 0 -11 6 -11 13 0 6 -10 -3 -21 -20 -12 -18 -25 -30 -31 -27
-6 4 -6 9 2 14 7 4 11 12 9 17 -2 6 -14 -1 -27 -14 -22 -23 -22 -23 -2 -23 18
0 19 -3 10 -21 -11 -20 -12 -20 -25 -2 -8 10 -15 14 -15 9 0 -5 -8 -2 -17 5
-17 13 -17 13 -3 -5 14 -18 14 -19 -5 -12 -44 18 -58 20 -50 6 5 -9 4 -11 -3
-6 -7 4 -12 1 -12 -8 0 -8 -6 -16 -12 -19 -10 -3 -9 -8 2 -22 13 -16 13 -18 0
-13 -8 2 -20 0 -26 -6 -7 -7 -3 -16 15 -32 21 -18 22 -22 8 -20 -10 1 -22 8
-27 15 -5 9 -10 10 -14 2 -4 -6 -2 -11 3 -11 6 0 11 -6 11 -13 0 -8 -7 -14
-15 -14 -14 0 -19 10 -16 29 0 5 -2 7 -7 7 -4 -1 -10 0 -14 1 -5 1 -12 3 -18
4 -16 2 -12 20 5 22 8 1 15 -1 15 -5 0 -4 7 -8 15 -8 17 0 20 13 5 22 -6 4 -7
12 -3 18 3 7 -3 3 -15 -7 -12 -11 -22 -16 -22 -12 0 3 -11 -1 -24 -9 -13 -9
-27 -12 -30 -7 -2 4 8 16 25 26 16 9 29 14 29 10 0 -4 9 1 20 11 11 10 30 19
42 20 37 4 38 4 38 17 0 9 -3 9 -12 0 -15 -15 -28 -16 -28 -2 0 5 12 13 28 16
15 4 33 11 40 17 7 5 15 7 18 4 4 -3 13 0 21 8 18 18 37 20 28 3 -4 -7 0 -5 8
5 19 23 169 98 184 92 7 -2 15 1 19 7 4 7 3 8 -4 4 -7 -4 -12 -5 -12 -2 0 11
142 76 152 70 6 -4 8 -3 5 4 -7 10 77 65 100 65 6 0 11 3 10 7 -1 4 49 44 111
88 62 45 110 77 107 73 -3 -5 4 -7 15 -4 22 6 49 33 32 33 -6 0 -13 -6 -15
-12 -4 -8 -6 -9 -6 -2 -1 18 87 86 100 78 7 -4 9 -3 6 3 -9 15 61 75 76 67 7
-4 9 -3 4 1 -10 12 53 76 67 68 6 -3 7 -2 3 2 -9 11 133 156 145 149 5 -3 7
-1 6 4 -3 8 141 192 149 192 2 0 1 -11 -3 -25 -3 -14 -2 -25 3 -25 6 0 9 14 8
31 -1 19 6 41 19 58 12 14 29 37 38 51 10 14 39 57 67 97 27 39 57 85 66 102
9 19 20 29 27 25 7 -4 8 -3 4 4 -3 6 18 55 48 109 71 129 125 248 184 406 16
42 32 74 36 70 4 -4 4 0 1 8 -3 9 5 51 19 95 52 165 98 374 121 552 l7 52 74
0 74 0 0 -39z m-5244 -1053 c104 -160 216 -289 381 -437 46 -40 80 -78 76 -84
-3 -5 -1 -7 4 -4 6 4 33 -11 61 -34 l51 -40 -27 -44 c-15 -26 -30 -41 -37 -36
-169 124 -387 338 -505 496 -112 150 -170 240 -159 248 26 21 57 37 71 37 11
0 41 -36 84 -102z m3950 74 l32 -17 -55 -90 c-93 -152 -265 -361 -286 -348 -7
3 -9 3 -5 -2 21 -22 -286 -295 -332 -295 -10 0 -50 54 -50 68 0 5 33 34 73 65
165 127 431 420 530 584 35 57 46 61 93 35z m-4442 -157 c27 -47 47 -87 45
-89 -77 -54 -110 -76 -114 -76 -2 0 -27 42 -54 92 l-50 93 57 32 c31 18 60 33
63 33 3 0 27 -38 53 -85z m4921 58 c30 -15 55 -31 55 -36 0 -8 -69 -144 -89
-176 -7 -10 -20 -5 -60 25 -28 21 -51 42 -51 47 0 9 83 167 87 167 2 0 27 -12
58 -27z m-4511 -165 l24 -41 -75 -59 c-42 -32 -79 -58 -82 -58 -4 0 -21 20
-38 44 l-32 45 77 55 c42 31 82 56 89 56 6 0 23 -19 37 -42z m2572 30 c16 -11
23 -43 13 -59 -13 -22 -113 -26 -645 -25 -539 1 -544 1 -544 46 0 44 10 45
603 45 309 0 567 -3 573 -7z m1488 -20 c-4 -6 -3 -8 3 -5 11 7 123 -60 123
-72 0 -4 -14 -26 -31 -49 l-31 -42 -44 31 c-24 16 -42 34 -39 40 3 5 0 6 -7 4
-8 -3 -26 8 -42 24 l-27 29 31 36 c27 30 35 34 51 25 11 -5 16 -15 13 -21z
m-2756 -21 c4 -20 -25 -34 -39 -20 -14 14 1 45 20 41 9 -2 17 -11 19 -21z
m1425 9 c5 -13 -10 -36 -24 -36 -10 0 -20 30 -13 41 8 14 31 11 37 -5z m-2933
-194 c30 -42 56 -79 58 -83 2 -4 -20 -23 -47 -44 l-51 -36 -25 28 c-13 15 -25
31 -25 34 0 3 -16 26 -35 50 l-35 44 48 42 c26 23 49 42 52 42 3 0 30 -34 60
-77z m4569 13 c1 -2 -25 -44 -59 -94 l-63 -90 -29 20 c-16 12 -25 26 -22 32 4
7 4 9 -1 5 -10 -9 -45 9 -45 24 0 6 25 46 56 89 l56 77 51 -30 c29 -17 54 -32
56 -33z m-1795 2 c12 -9 17 -23 14 -42 l-3 -30 -581 -3 c-513 -2 -583 0 -594
13 -18 21 2 62 32 68 13 2 269 5 569 6 433 1 549 -2 563 -12z m-1266 -34 c4
-25 -22 -37 -38 -17 -10 11 -10 17 0 29 17 20 34 14 38 -12z m1420 3 c2 -10
-1 -23 -8 -30 -17 -17 -44 22 -28 41 14 17 32 12 36 -11z m-1843 -61 c14 -13
25 -31 25 -39 0 -8 -40 -68 -88 -133 -49 -65 -101 -140 -116 -166 -24 -40 -32
-47 -60 -47 -18 0 -37 5 -44 12 -19 19 -14 62 11 97 12 17 58 84 101 149 44
64 87 125 95 135 20 24 48 21 76 -8z m2391 -107 c55 -73 109 -155 122 -181 22
-45 22 -50 7 -73 -11 -17 -25 -24 -46 -24 -25 0 -34 8 -57 45 -15 25 -66 98
-114 161 -93 122 -103 149 -68 184 38 38 53 27 156 -112z m-690 -20 c15 -14
16 -22 6 -43 -13 -29 44 -26 -532 -29 -500 -2 -640 4 -654 27 -18 28 5 51 55
57 24 3 283 5 576 5 489 0 534 -1 549 -17z m-1281 -28 c0 -13 -6 -25 -12 -27
-16 -6 -27 21 -19 43 9 23 31 11 31 -16z m1433 7 c4 -20 -25 -34 -40 -19 -15
15 -1 44 19 40 10 -2 19 -11 21 -21z m-2744 -8 c-3 -5 -1 -8 4 -7 9 3 212
-185 212 -197 0 -4 -15 -24 -34 -45 l-34 -37 -33 25 c-19 14 -75 66 -126 115
l-91 90 46 37 c42 34 72 44 56 19z m4070 -24 l38 -34 -22 -31 c-12 -16 -26
-27 -32 -24 -6 4 -8 2 -5 -3 9 -14 -61 -75 -75 -67 -6 4 -8 3 -4 -4 7 -12 -73
-84 -86 -76 -5 3 -7 0 -6 -8 5 -25 -18 -13 -55 28 l-37 41 58 51 c31 28 84 76
117 106 32 31 62 56 65 56 3 -1 22 -16 44 -35z m-2793 -246 c208 -69 196 -59
168 -136 l-8 -21 -78 23 c-210 63 -334 110 -473 180 l-90 45 21 30 c12 16 27
26 32 23 6 -3 7 -1 3 5 -19 31 13 23 119 -29 65 -32 202 -86 306 -120z m1912
141 l26 -40 -87 -47 c-100 -55 -163 -83 -282 -124 -85 -30 -281 -81 -287 -76
-2 2 -6 24 -9 49 l-6 45 37 7 c103 20 370 122 500 193 33 18 65 32 71 33 6 0
22 -18 37 -40z m-2721 -224 l77 -49 -26 -33 c-14 -19 -29 -34 -34 -34 -5 0 -6
-6 -3 -13 3 -8 -1 -19 -8 -25 -10 -8 -32 2 -90 41 -43 29 -73 54 -68 55 6 2
10 8 10 13 0 6 -6 7 -12 3 -7 -5 5 15 27 44 22 28 42 50 45 49 3 -1 40 -24 82
-51z m3200 1 l36 -53 -54 -37 c-30 -21 -59 -35 -66 -31 -6 4 -8 3 -5 -3 4 -6
-4 -18 -18 -27 -24 -16 -25 -15 -50 29 -15 24 -23 50 -19 56 4 7 3 9 -4 5 -6
-3 -13 -2 -17 4 -6 9 7 14 28 11 4 0 6 3 5 8 -3 10 101 90 117 90 6 1 26 -23
47 -52z m-1612 -222 c1 -93 2 -205 3 -249 4 -93 -5 -106 -69 -106 l-44 0 0
264 0 265 55 -2 55 -2 0 -170z m-1274 39 c40 -19 76 -39 79 -44 9 -15 -18 -61
-44 -76 -23 -13 -23 -15 -4 -11 15 3 20 1 16 -9 -3 -8 -9 -14 -14 -14 -17 0
-58 23 -54 31 3 4 0 11 -6 15 -8 4 -9 3 -5 -4 11 -19 -11 -14 -64 13 -50 25
-50 26 -34 50 9 14 24 25 33 25 13 0 13 2 3 9 -12 7 -12 12 -1 30 8 11 15 21
17 21 2 0 37 -16 78 -36z m2558 -20 c15 -31 26 -57 24 -59 -6 -6 -169 -75
-177 -75 -13 0 -44 77 -37 89 4 6 2 11 -4 11 -6 0 -8 5 -5 11 7 11 142 77 161
78 6 1 23 -24 38 -55z m-2160 -132 l82 -27 -8 -42 c-7 -32 -14 -43 -28 -43
-10 0 -21 -4 -25 -9 -3 -6 4 -8 15 -6 11 2 20 0 20 -6 0 -14 -17 -11 -133 23
-120 35 -117 30 -81 116 16 39 17 39 158 -6z m1808 -21 c21 -64 23 -61 -72
-90 -109 -33 -118 -34 -134 -18 -21 21 -30 79 -14 99 13 17 161 68 187 65 8
-1 22 -26 33 -56z m-1282 -117 c0 -17 -3 -46 -6 -63 l-7 -32 -51 6 c-65 8
-230 36 -233 39 -2 1 2 29 8 62 l10 59 140 -19 139 -20 0 -32z m878 21 c-3
-26 -1 -46 5 -48 6 -2 8 -10 5 -19 -6 -15 -34 -20 -250 -44 l-48 -5 0 65 c0
56 3 66 18 66 29 1 125 12 167 20 22 4 55 8 74 9 l34 1 -5 -45z m854 -89 c-18
-24 -62 -49 -62 -36 0 5 5 12 10 15 6 3 10 11 10 16 0 6 -4 7 -10 4 -5 -3 -10
-1 -10 4 0 17 18 13 30 -6 10 -16 11 -16 7 3 -4 17 0 22 19 22 22 0 22 -1 6
-22z m-319 -58 c-13 -6 -23 -15 -23 -20 0 -5 -5 -6 -11 -3 -5 4 -19 -1 -29
-10 -11 -10 -24 -14 -32 -9 -7 4 -10 4 -6 -1 9 -9 -9 -35 -24 -35 -6 0 -4 8 3
18 11 14 11 15 0 5 -7 -6 -20 -9 -28 -6 -8 3 -13 0 -11 -8 2 -8 -2 -13 -8 -12
-6 1 -11 -3 -11 -10 0 -7 -4 -20 -8 -29 -5 -13 -1 -16 19 -14 17 2 26 -2 26
-11 0 -10 -7 -11 -27 -6 -16 4 -42 7 -58 7 -17 0 -38 7 -48 16 -14 14 -14 17
-2 17 8 0 15 -3 15 -7 0 -3 8 -6 18 -7 10 -1 19 5 19 13 0 8 -6 13 -13 10 -8
-3 -16 -1 -18 3 -8 12 -56 1 -53 -11 1 -6 -5 -13 -13 -15 -13 -4 -13 -3 0 6
13 9 13 11 -2 11 -11 0 -18 -7 -18 -17 0 -13 -3 -14 -8 -6 -6 9 -19 10 -52 3
-43 -9 -43 -9 -7 -7 27 2 36 0 33 -10 -7 -18 24 -47 37 -34 5 5 16 7 23 4 8
-3 14 0 14 7 0 6 5 8 10 5 13 -8 -7 -36 -24 -34 -6 1 -19 1 -30 0 -16 -1 -16
-3 5 -25 23 -24 24 -24 64 -8 38 15 86 42 74 42 -3 0 -21 -7 -39 -17 -37 -18
-80 -25 -80 -13 0 11 30 21 41 15 5 -4 6 2 2 12 -6 16 -5 16 10 4 10 -8 20
-11 24 -7 3 3 0 6 -8 6 -10 1 -9 3 3 11 19 11 58 -4 58 -22 0 -6 5 -7 10 -4 6
4 23 9 38 11 15 3 32 10 37 16 7 7 6 9 -1 5 -12 -7 -27 41 -17 55 8 14 41 8
47 -8 11 -27 7 -37 -9 -24 -8 7 -12 16 -9 21 3 5 1 9 -5 9 -13 0 -10 -40 4
-41 5 0 17 -2 26 -4 19 -3 19 9 2 41 -17 29 -2 50 25 33 17 -11 18 -14 5 -27
-22 -22 -6 -28 19 -6 12 10 18 14 15 8 -4 -7 0 -14 8 -18 8 -3 15 -10 15 -16
0 -7 -6 -6 -18 1 -14 9 -23 9 -38 0 -17 -11 -15 -11 11 -6 65 14 5 -14 -105
-48 -143 -45 -241 -70 -247 -63 -3 3 -14 1 -25 -5 -16 -9 -24 -6 -40 11 -15
16 -23 19 -28 10 -4 -7 -12 -10 -18 -6 -6 3 -12 0 -15 -6 -2 -7 -4 -1 -3 14 0
14 4 24 7 22 4 -2 12 3 19 11 19 22 -25 68 -54 58 -12 -3 -31 -6 -43 -5 -13 1
-24 -4 -25 -11 0 -6 -2 -16 -3 -22 -2 -5 -3 -16 -4 -23 0 -7 -6 -10 -11 -7 -6
4 -7 11 -4 17 4 7 2 8 -5 4 -6 -4 -14 0 -17 9 -5 13 -9 14 -15 4 -4 -7 -22
-14 -39 -15 -29 -2 -30 -1 -13 11 14 11 15 14 3 15 -8 0 -21 -10 -28 -21 -10
-16 -17 -18 -25 -10 -6 6 -15 11 -19 11 -5 0 3 -11 17 -25 29 -30 30 -31 11
-38 -11 -4 -13 -1 -9 11 6 16 6 16 -10 0 -13 -12 -27 -15 -54 -11 -24 4 -34 3
-30 -5 4 -5 17 -8 30 -5 21 4 22 4 3 -11 -17 -14 -17 -16 -3 -16 10 0 14 -5
11 -15 -4 -8 -2 -15 4 -15 5 0 12 7 16 15 3 8 1 15 -4 15 -6 0 -10 4 -10 9 0
4 11 7 25 6 14 -2 25 1 25 5 0 10 39 5 49 -6 3 -4 -2 -4 -11 -1 -10 3 -20 2
-23 -3 -4 -6 3 -10 14 -10 12 0 21 -4 21 -10 0 -5 5 -10 11 -10 6 0 7 5 2 13
-13 21 -12 37 3 37 9 0 12 5 8 12 -4 7 -3 8 5 4 6 -4 9 -11 6 -15 -2 -5 4 -16
15 -26 24 -22 25 -10 1 30 -18 31 -46 41 -46 16 0 -8 -7 -16 -15 -19 -8 -3
-12 -1 -8 3 4 4 0 14 -8 22 -19 20 -8 36 16 23 13 -7 21 -7 25 0 5 8 11 8 19
1 7 -6 17 -7 21 -3 5 4 6 0 3 -9 -4 -9 1 -30 9 -48 13 -25 20 -30 37 -25 11 4
30 8 40 9 11 1 23 11 27 23 5 12 11 22 15 22 3 0 3 -8 0 -17 -4 -10 -4 -14 0
-10 4 4 14 1 22 -6 9 -7 13 -7 9 -1 -6 11 39 12 49 1 7 -7 -120 -29 -183 -32
-29 -2 -56 -6 -61 -9 -4 -2 -55 -8 -112 -12 l-103 -7 16 23 c12 18 14 27 5 37
-7 9 -7 13 1 13 16 0 14 25 -4 40 -25 21 -18 40 15 40 19 0 30 -5 30 -14 0 -8
7 -17 16 -20 26 -10 34 -7 27 10 -4 11 -8 12 -13 4 -5 -8 -9 -7 -13 4 -8 21
21 28 118 30 41 0 75 5 75 10 0 5 3 6 7 3 3 -4 11 -3 17 2 6 5 32 11 57 15 39
6 49 3 72 -18 15 -14 29 -22 31 -18 6 9 -19 43 -26 36 -4 -3 -8 -1 -12 4 -3 5
25 14 62 21 37 7 90 19 118 27 28 8 59 11 69 8 12 -5 16 -4 12 3 -4 6 23 19
66 32 39 12 92 30 117 41 49 20 79 25 43 8z m91 -34 c5 -14 4 -15 -9 -4 -17
14 -19 20 -6 20 5 0 12 -7 15 -16z m-224 -68 c0 -8 -9 -16 -19 -19 -19 -5 -22
7 -8 31 10 15 27 7 27 -12z m-1870 4 c0 -5 -5 -10 -11 -10 -5 0 -7 5 -4 10 3
6 8 10 11 10 2 0 4 -4 4 -10z m1917 4 c-3 -3 -12 -4 -19 -1 -8 3 -5 6 6 6 11
1 17 -2 13 -5z m-1962 -32 c-8 -8 -25 10 -19 20 4 6 9 5 15 -3 4 -7 6 -15 4
-17z m-75 8 c0 -5 -2 -10 -4 -10 -3 0 -8 5 -11 10 -3 6 -1 10 4 10 6 0 11 -4
11 -10z m1846 -30 c8 0 14 -7 14 -17 0 -15 -1 -15 -18 0 -14 13 -21 14 -30 5
-9 -9 -12 -9 -12 3 0 12 -2 12 -9 0 -5 -8 -16 -11 -26 -8 -24 10 -9 26 20 22
14 -1 28 2 32 8 5 8 8 7 11 -1 2 -7 10 -12 18 -12z m128 -20 c18 -6 17 -7 -6
-12 -16 -3 -34 2 -49 14 l-24 19 30 -7 c17 -4 39 -10 49 -14z m-352 -19 c7
-21 6 -22 -7 -11 -8 7 -12 17 -8 23 3 6 1 7 -5 3 -7 -4 -12 -2 -12 4 0 19 23
5 32 -19z m-64 7 c9 -9 12 -9 12 0 0 7 7 5 20 -5 11 -10 20 -20 20 -24 0 -14
-41 -52 -48 -44 -4 4 -1 10 5 12 9 3 10 10 3 23 -10 19 -40 17 -40 -2 0 -6 7
-5 16 3 13 11 14 9 9 -13 -4 -15 -2 -29 4 -32 6 -4 11 -12 11 -18 0 -6 -10 -3
-22 8 -12 10 -18 14 -15 7 4 -6 3 -14 -3 -18 -10 -6 -13 5 -11 40 1 17 8 65
10 73 2 6 18 1 29 -10z m-490 -211 c0 -100 -5 -187 -10 -193 -5 -7 -19 -10
-31 -7 -18 4 -19 3 -7 -6 13 -9 13 -11 -2 -11 -10 0 -18 5 -18 12 0 6 -3 8 -6
5 -4 -3 -15 -2 -25 4 -16 8 -18 23 -18 127 1 121 5 144 21 121 8 -11 9 -11 5
1 -2 8 -10 14 -16 13 -7 -2 -11 18 -11 56 l0 60 53 3 c28 2 55 2 59 0 4 -1 7
-85 6 -185z m427 153 c-3 -5 0 -10 7 -12 9 -3 9 -6 0 -12 -7 -4 -14 -2 -16 6
-13 43 -17 49 -27 42 -8 -5 -9 -3 -5 5 6 9 13 8 27 -5 10 -9 16 -20 14 -24z
m-261 -65 c-4 -8 -11 -15 -16 -15 -6 0 -5 6 2 15 7 8 14 15 16 15 2 0 1 -7 -2
-15z"/>
<path d="M2327 3559 c7 -7 15 -10 18 -7 3 3 -2 9 -12 12 -14 6 -15 5 -6 -5z"/>
<path d="M2677 3113 c10 -3 10 -10 2 -26 -12 -22 -12 -22 8 -2 19 19 13 36
-12 34 -5 0 -4 -3 2 -6z"/>
<path d="M2675 2970 c-3 -6 1 -7 9 -4 18 7 21 14 7 14 -6 0 -13 -4 -16 -10z"/>
<path d="M2810 2854 c0 -5 7 -18 15 -28 8 -11 15 -16 15 -10 0 5 -7 18 -15 28
-8 11 -15 16 -15 10z"/>
<path d="M2926 2823 c-6 -14 -5 -15 5 -6 7 7 10 15 7 18 -3 3 -9 -2 -12 -12z"/>
<path d="M3004 2791 c4 -5 0 -11 -6 -14 -7 -3 -3 -4 9 -4 17 1 19 4 11 14 -12
15 -22 18 -14 4z"/>
<path d="M2844 2782 c-9 -5 -8 -10 1 -19 11 -10 13 -9 12 7 -1 11 -1 20 -2 20
0 0 -5 -4 -11 -8z"/>
<path d="M2895 2710 c3 -5 8 -10 11 -10 2 0 4 5 4 10 0 6 -5 10 -11 10 -5 0
-7 -4 -4 -10z"/>
<path d="M2935 2700 c3 -5 8 -10 11 -10 2 0 4 5 4 10 0 6 -5 10 -11 10 -5 0
-7 -4 -4 -10z"/>
<path d="M2965 2680 c-3 -5 -1 -10 4 -10 6 0 11 5 11 10 0 6 -2 10 -4 10 -3 0
-8 -4 -11 -10z"/>
<path d="M2956 2648 c3 -4 9 -8 15 -8 5 0 9 4 9 8 0 5 -7 9 -15 9 -8 0 -12 -4
-9 -9z"/>
<path d="M2993 2623 c0 -7 6 -13 14 -13 7 0 13 6 13 13 0 8 -6 14 -13 14 -8 0
-14 -6 -14 -14z"/>
<path d="M3160 2609 c0 -5 5 -7 10 -4 6 3 10 8 10 11 0 2 -4 4 -10 4 -5 0 -10
-5 -10 -11z"/>
<path d="M3084 2592 c-12 -8 -15 -42 -3 -42 4 0 11 5 14 10 3 6 1 10 -5 10 -6
0 -8 5 -5 10 4 6 11 7 17 4 7 -4 8 -2 4 4 -8 14 -8 14 -22 4z"/>
<path d="M3230 2560 c-9 -6 -10 -10 -3 -10 6 0 15 5 18 10 8 12 4 12 -15 0z"/>
<path d="M3096 2532 c-3 -5 1 -9 9 -9 8 0 12 4 9 9 -3 4 -7 8 -9 8 -2 0 -6 -4
-9 -8z"/>
<path d="M3210 2480 c-9 -6 -10 -10 -3 -10 6 0 15 5 18 10 8 12 4 12 -15 0z"/>
<path d="M3366 2482 c-3 -5 1 -9 9 -9 8 0 12 4 9 9 -3 4 -7 8 -9 8 -2 0 -6 -4
-9 -8z"/>
<path d="M3192 2454 c10 -10 20 -15 24 -12 3 4 -5 12 -18 18 -22 12 -22 12 -6
-6z"/>
<path d="M3282 2455 c-7 -8 -9 -15 -4 -15 5 0 15 7 22 15 16 19 -1 19 -18 0z"/>
<path d="M3330 2410 c0 -5 5 -10 11 -10 5 0 7 5 4 10 -3 6 -8 10 -11 10 -2 0
-4 -4 -4 -10z"/>
<path d="M3388 2353 c7 -3 16 -2 19 1 4 3 -2 6 -13 5 -11 0 -14 -3 -6 -6z"/>
<path d="M3427 2343 c3 -7 6 -13 8 -13 2 0 5 6 8 13 3 8 -1 14 -8 14 -7 0 -11
-6 -8 -14z"/>
<path d="M3466 2345 c4 -8 8 -15 10 -15 2 0 4 7 4 15 0 8 -4 15 -10 15 -5 0
-7 -7 -4 -15z"/>
<path d="M3499 2333 c-13 -17 -13 -17 6 -3 11 8 22 16 24 17 2 2 0 3 -6 3 -6
0 -17 -8 -24 -17z"/>
<path d="M3386 2332 c-3 -5 1 -9 9 -9 8 0 12 4 9 9 -3 4 -7 8 -9 8 -2 0 -6 -4
-9 -8z"/>
<path d="M3427 2309 c7 -7 15 -10 18 -7 3 3 -2 9 -12 12 -14 6 -15 5 -6 -5z"/>
<path d="M3390 2306 c0 -2 7 -7 16 -10 8 -3 12 -2 9 4 -6 10 -25 14 -25 6z"/>
<path d="M3450 2280 c0 -5 7 -7 15 -4 8 4 15 8 15 10 0 2 -7 4 -15 4 -8 0 -15
-4 -15 -10z"/>
<path d="M3550 2280 c18 -12 30 -13 30 -2 0 4 -10 9 -22 9 -18 2 -20 0 -8 -7z"/>
<path d="M3490 2272 c0 -11 51 -64 56 -59 3 3 -9 18 -26 35 -16 17 -30 27 -30
24z"/>
<path d="M3580 2260 c-13 -8 -12 -10 3 -10 9 0 17 5 17 10 0 12 -1 12 -20 0z"/>
<path d="M3665 2260 c-3 -5 -1 -10 4 -10 6 0 11 5 11 10 0 6 -2 10 -4 10 -3 0
-8 -4 -11 -10z"/>
<path d="M3540 2249 c0 -5 5 -7 10 -4 6 3 10 8 10 11 0 2 -4 4 -10 4 -5 0 -10
-5 -10 -11z"/>
<path d="M3730 2246 c0 -2 7 -6 15 -10 8 -3 15 -1 15 4 0 6 -7 10 -15 10 -8 0
-15 -2 -15 -4z"/>
<path d="M3671 2223 c-10 -11 -16 -12 -24 -4 -15 15 -24 14 -24 -3 0 -8 6 -12
14 -9 7 3 13 0 13 -6 0 -6 5 -11 11 -11 5 0 7 5 4 10 -3 6 -1 10 4 10 6 0 11
-4 11 -10 0 -5 5 -10 12 -10 9 0 9 3 0 12 -9 9 -7 14 5 23 12 9 13 12 1 12 -7
0 -20 -7 -27 -14z"/>
<path d="M3580 2210 c-13 -8 -12 -11 5 -24 24 -18 26 -19 45 -5 12 9 11 10 -7
6 -27 -6 -42 11 -22 24 8 5 10 9 4 9 -5 0 -17 -5 -25 -10z"/>
<path d="M3725 2210 c-3 -6 1 -7 9 -4 9 3 16 1 16 -5 0 -6 -5 -11 -11 -11 -5
0 -7 -4 -4 -10 4 -6 11 -5 20 3 9 8 10 16 3 25 -13 15 -25 16 -33 2z"/>
<path d="M3847 2184 c6 -15 23 -19 23 -5 0 5 -7 11 -14 14 -10 4 -13 1 -9 -9z"/>
<path d="M3705 2181 c-3 -5 -16 -8 -30 -5 -27 5 -44 -14 -24 -27 20 -13 29
-11 29 5 0 9 7 13 18 11 11 -2 19 3 19 11 0 16 -4 18 -12 5z"/>
<path d="M3887 2165 c3 -8 9 -12 14 -9 12 7 11 11 -5 17 -10 4 -13 1 -9 -8z"/>
<path d="M3797 2139 c4 -13 8 -18 11 -10 2 7 -1 18 -6 23 -8 8 -9 4 -5 -13z"/>
<path d="M3827 2136 c-4 -10 -3 -15 3 -11 6 3 10 -1 10 -9 0 -10 -6 -13 -17
-10 -15 5 -16 4 -3 -5 22 -15 36 3 23 31 -8 19 -10 20 -16 4z"/>
<path d="M3740 2132 c0 -5 7 -9 15 -9 8 0 12 4 9 9 -3 4 -9 8 -15 8 -5 0 -9
-4 -9 -8z"/>
<path d="M3945 2129 c-4 -6 -5 -12 -2 -15 2 -3 7 2 10 11 7 17 1 20 -8 4z"/>
<path d="M3970 2126 c0 -2 9 -6 20 -9 11 -3 18 -1 14 4 -5 9 -34 13 -34 5z"/>
<path d="M3886 2111 c-7 -10 18 -34 27 -25 7 8 -3 34 -13 34 -5 0 -11 -4 -14
-9z"/>
<path d="M4020 2105 c0 -8 2 -15 4 -15 2 0 6 7 10 15 3 8 1 15 -4 15 -6 0 -10
-7 -10 -15z"/>
<path d="M3983 2087 c0 -13 10 -17 49 -18 10 0 20 -5 23 -10 4 -5 11 -7 16 -4
5 4 9 1 9 -6 0 -7 3 -9 6 -6 4 4 1 13 -6 22 -10 12 -10 15 2 15 8 0 19 -5 25
-11 8 -8 13 -7 18 2 5 8 4 10 -3 5 -7 -4 -12 -2 -12 4 0 12 -58 9 -78 -4 -6
-3 -17 1 -25 9 -19 18 -24 19 -24 2z"/>
<path d="M3872 2071 c4 -13 18 -16 19 -4 0 4 -5 9 -11 12 -7 2 -11 -2 -8 -8z"/>
<path d="M4001 2033 c13 -15 18 -23 11 -19 -15 9 -52 -2 -52 -16 0 -7 5 -7 14
1 7 6 20 9 28 6 8 -3 21 1 28 10 16 19 34 20 27 1 -4 -10 4 -18 24 -25 18 -6
29 -17 29 -29 0 -10 6 -19 14 -19 9 0 12 6 8 16 -5 14 -4 14 13 1 10 -8 16
-10 12 -3 -4 7 1 14 13 18 11 3 20 11 20 16 0 11 -14 12 -24 2 -10 -10 -38
-14 -56 -7 -12 4 -8 11 15 30 18 15 22 22 11 18 -14 -6 -17 -4 -11 6 6 9 4 11
-4 6 -7 -5 -10 -11 -7 -14 8 -8 -14 -32 -30 -32 -8 0 -14 5 -14 11 0 5 6 7 13
4 6 -4 1 2 -13 13 -18 15 -27 17 -32 9 -6 -9 -10 -8 -17 2 -5 8 -17 16 -26 17
-14 2 -12 -3 6 -23z"/>
<path d="M4027 1975 c7 -19 25 -15 31 6 3 11 2 11 -7 -1 -7 -10 -11 -11 -11
-2 0 6 -4 12 -10 12 -5 0 -7 -7 -3 -15z"/>
<path d="M4070 1961 c0 -5 6 -11 13 -14 8 -3 14 1 14 9 0 8 -6 14 -14 14 -7 0
-13 -4 -13 -9z"/>
<path d="M4453 1964 c7 -7 -17 -34 -30 -34 -13 0 -10 -47 5 -62 8 -8 12 -9 12
-1 0 7 -5 15 -10 18 -8 5 -7 11 1 21 6 7 15 12 19 9 4 -3 13 2 20 11 7 8 19
13 26 10 7 -3 16 0 20 6 4 6 3 8 -4 4 -6 -3 -15 2 -21 11 -9 16 -10 16 -11 2
0 -18 -30 -49 -30 -31 0 6 5 14 10 17 14 8 13 25 -2 25 -6 0 -9 -3 -5 -6z"/>
<path d="M4516 1919 c-15 -22 -13 -39 5 -39 5 0 8 3 7 8 0 4 2 15 7 25 12 27
-1 31 -19 6z"/>
<path d="M4588 1933 c7 -3 16 -2 19 1 4 3 -2 6 -13 5 -11 0 -14 -3 -6 -6z"/>
<path d="M4387 1923 c-3 -5 -1 -17 3 -27 6 -17 7 -18 13 -3 3 9 2 17 -4 17 -6
0 -7 5 -4 10 3 6 4 10 1 10 -3 0 -7 -3 -9 -7z"/>
<path d="M4656 1921 c-3 -5 -28 -8 -56 -7 -27 2 -47 -1 -44 -6 3 -4 -3 -8 -13
-8 -15 0 -16 -2 -3 -10 20 -13 33 -13 25 0 -3 6 -3 10 2 11 4 0 16 2 26 4 10
2 17 -3 17 -13 0 -11 3 -13 8 -6 4 6 18 15 32 19 23 7 23 7 7 -9 -9 -10 -17
-21 -17 -26 0 -15 18 -21 23 -8 2 7 8 9 13 5 5 -4 3 -12 -4 -16 -9 -5 -5 -11
13 -19 14 -6 25 -8 25 -3 0 15 45 6 46 -9 1 -8 2 -23 3 -33 0 -10 5 -16 11
-12 5 3 7 12 3 20 -3 8 -2 22 1 31 5 13 9 14 20 5 19 -16 30 13 12 31 -7 7
-11 18 -9 25 5 14 -14 26 -27 18 -8 -5 -7 -12 2 -23 11 -14 10 -15 -5 -9 -10
4 -22 7 -27 7 -4 0 -7 7 -6 16 0 9 -6 19 -14 22 -13 5 -13 3 -1 -11 8 -10 9
-17 3 -17 -6 0 -16 8 -21 18 -8 13 -11 14 -11 2 -1 -12 -3 -11 -14 3 -8 10
-17 14 -20 8z m44 -33 c0 -4 8 -8 18 -8 14 0 15 -2 2 -10 -11 -7 -3 -9 27 -7
26 2 44 -1 47 -8 4 -10 -26 -14 -44 -5 -3 1 -18 1 -34 0 -23 -1 -28 2 -23 14
4 10 1 16 -8 16 -8 0 -15 4 -15 8 0 5 7 9 15 9 8 0 15 -4 15 -9z m90 2 c0 -5
-2 -10 -4 -10 -3 0 -8 5 -11 10 -3 6 -1 10 4 10 6 0 11 -4 11 -10z"/>
<path d="M4353 1899 c-2 -23 3 -25 10 -4 4 8 3 16 -1 19 -4 3 -9 -4 -9 -15z"/>
<path d="M4275 1890 c-3 -5 -1 -10 4 -10 6 0 11 5 11 10 0 6 -2 10 -4 10 -3 0
-8 -4 -11 -10z"/>
<path d="M4470 1893 c1 -15 30 -46 36 -40 4 4 13 2 21 -4 8 -7 13 -8 13 -1 0
5 11 12 25 14 14 3 25 1 25 -4 0 -5 5 -6 10 -3 6 3 17 -1 26 -9 8 -9 11 -16 6
-16 -5 0 -12 3 -15 7 -13 12 -64 8 -64 -5 0 -7 6 -11 13 -8 7 3 15 -2 18 -11
5 -11 10 -12 19 -4 8 6 23 9 35 6 27 -5 29 15 4 35 -33 27 -62 41 -62 30 0 -6
-13 -9 -28 -8 -15 1 -33 -2 -40 -6 -9 -5 -15 -1 -19 13 -5 19 -23 30 -23 14z"/>
<path d="M4811 1883 c0 -11 3 -13 6 -5 2 6 9 12 14 12 6 0 7 -5 4 -10 -12 -20
-15 -60 -5 -60 6 0 8 5 5 10 -3 6 -2 10 4 10 20 0 22 -22 2 -27 -12 -3 -21 -9
-21 -13 0 -13 31 -5 41 11 7 12 9 12 9 -1 0 -11 2 -12 8 -3 4 7 18 11 30 8 13
-2 25 3 32 13 6 12 9 13 10 3 0 -7 6 -11 14 -8 8 3 21 0 30 -6 14 -10 12 -12
-14 -12 -16 0 -30 4 -30 9 0 5 -6 3 -14 -3 -14 -11 -14 -46 -1 -59 3 -4 17 7
30 23 24 29 25 29 40 11 8 -10 12 -22 10 -26 -2 -4 2 -7 10 -7 12 0 14 13 13
57 -3 50 -5 56 -25 58 -13 1 -23 -3 -23 -9 0 -6 6 -9 13 -6 8 3 14 -4 15 -16
1 -16 -1 -18 -7 -8 -5 7 -14 10 -20 7 -6 -4 -11 -2 -11 4 0 6 -4 8 -10 5 -5
-3 -18 -1 -29 5 -15 8 -22 7 -28 -4 -4 -8 -17 -16 -28 -18 -14 -2 -20 3 -21
19 -2 27 -21 53 -40 53 -8 0 -14 -8 -13 -17z m219 -89 c0 -8 -5 -12 -10 -9 -6
4 -8 11 -5 16 9 14 15 11 15 -7z m-72 -11 c-6 -7 -16 -13 -22 -12 -6 0 -5 3 3
6 11 5 11 7 0 14 -10 6 -7 8 8 6 17 -1 19 -4 11 -14z"/>
<path d="M4316 1882 c-3 -5 1 -9 9 -9 8 0 15 4 15 9 0 4 -4 8 -9 8 -6 0 -12
-4 -15 -8z"/>
<path d="M4446 1854 c-9 -24 -7 -28 7 -15 8 6 18 7 23 3 4 -4 2 1 -5 11 -16
21 -17 21 -25 1z"/>
<path d="M4510 1841 c0 -7 -4 -10 -9 -6 -5 3 -12 2 -14 -2 -3 -5 8 -9 25 -10
17 0 27 2 22 6 -5 3 -12 10 -16 15 -5 5 -8 4 -8 -3z"/>
<path d="M4681 1818 c9 -7 14 -18 12 -25 -3 -7 7 -11 27 -11 19 1 26 4 19 9
-7 4 -17 5 -21 3 -4 -3 -8 -1 -8 5 0 5 6 11 13 14 6 2 5 3 -4 2 -9 -1 -25 2
-35 7 -17 8 -17 8 -3 -4z"/>
<path d="M4780 1811 c0 -10 19 -25 25 -20 1 2 -3 10 -11 17 -8 7 -14 8 -14 3z"/>
<path d="M4889 1810 c0 -3 -2 -14 -4 -24 -6 -30 7 -42 17 -16 5 14 5 27 -2 34
-5 5 -10 8 -11 6z"/>
<path d="M4658 1793 c7 -3 16 -2 19 1 4 3 -2 6 -13 5 -11 0 -14 -3 -6 -6z"/>
<path d="M4860 1790 c0 -6 -6 -10 -12 -9 -25 3 -38 -1 -38 -12 0 -8 4 -8 14 0
10 8 16 9 21 1 3 -5 11 -10 16 -10 6 0 8 4 5 9 -4 5 -1 11 6 13 9 3 9 6 0 12
-7 4 -12 2 -12 -4z"/>
<path d="M7933 3087 c0 -8 6 -14 14 -14 9 0 10 4 2 14 -6 7 -12 13 -14 13 -1
0 -2 -6 -2 -13z"/>
<path d="M7680 2946 c0 -2 7 -7 16 -10 8 -3 12 -2 9 4 -6 10 -25 14 -25 6z"/>
<path d="M7590 2806 c0 -2 7 -9 15 -16 13 -11 14 -10 9 4 -5 14 -24 23 -24 12z"/>
<path d="M7516 2697 c3 -10 9 -15 12 -12 3 3 0 11 -7 18 -10 9 -11 8 -5 -6z"/>
<path d="M7320 2636 c0 -2 8 -10 18 -17 15 -13 16 -12 3 4 -13 16 -21 21 -21
13z"/>
<path d="M7386 2592 c-3 -4 4 -9 15 -9 23 -2 25 3 4 10 -8 4 -16 3 -19 -1z"/>
<path d="M7445 2570 c3 -5 8 -10 11 -10 2 0 4 5 4 10 0 6 -5 10 -11 10 -5 0
-7 -4 -4 -10z"/>
<path d="M7340 2516 c0 -2 7 -7 16 -10 8 -3 12 -2 9 4 -6 10 -25 14 -25 6z"/>
<path d="M7277 2499 c7 -7 15 -10 18 -7 3 3 -2 9 -12 12 -14 6 -15 5 -6 -5z"/>
<path d="M7254 2492 c4 -7 2 -21 -5 -30 -12 -15 -11 -15 6 0 16 15 17 20 6 30
-11 11 -13 10 -7 0z"/>
<path d="M7106 2462 c-3 -5 1 -9 9 -9 8 0 12 4 9 9 -3 4 -7 8 -9 8 -2 0 -6 -4
-9 -8z"/>
<path d="M7181 2457 c2 -1 13 -9 24 -17 19 -14 19 -14 6 3 -7 9 -18 17 -24 17
-6 0 -8 -1 -6 -3z"/>
<path d="M7286 2442 c-3 -5 1 -9 9 -9 8 0 12 4 9 9 -3 4 -7 8 -9 8 -2 0 -6 -4
-9 -8z"/>
<path d="M7071 2437 c2 -1 13 -9 24 -17 19 -14 19 -14 6 3 -7 9 -18 17 -24 17
-6 0 -8 -1 -6 -3z"/>
<path d="M7262 2416 c7 -8 15 -12 17 -11 5 6 -10 25 -20 25 -5 0 -4 -6 3 -14z"/>
<path d="M7070 2400 c6 -11 13 -20 16 -20 2 0 0 9 -6 20 -6 11 -13 20 -16 20
-2 0 0 -9 6 -20z"/>
<path d="M7200 2380 c8 -5 20 -10 25 -10 6 0 3 5 -5 10 -8 5 -19 10 -25 10 -5
0 -3 -5 5 -10z"/>
<path d="M6951 2356 c-15 -17 -1 -28 19 -15 11 6 12 9 2 9 -7 0 -10 5 -7 10 9
15 -1 12 -14 -4z"/>
<path d="M6990 2350 c0 -14 28 -19 33 -6 3 6 -4 13 -14 13 -10 1 -19 -2 -19
-7z"/>
<path d="M7040 2340 c-8 -5 -12 -12 -9 -15 4 -3 12 1 19 10 14 17 11 19 -10 5z"/>
<path d="M6939 2313 c11 -22 30 -38 35 -32 2 2 -8 15 -21 29 -23 23 -24 23
-14 3z"/>
<path d="M6980 2326 c0 -2 7 -9 15 -16 9 -7 15 -8 15 -2 0 5 -7 12 -15 16 -8
3 -15 4 -15 2z"/>
<path d="M7028 2303 c7 -3 16 -2 19 1 4 3 -2 6 -13 5 -11 0 -14 -3 -6 -6z"/>
<path d="M6876 2288 c3 -4 11 -5 19 -1 21 7 19 12 -4 10 -11 0 -18 -5 -15 -9z"/>
<path d="M6816 2267 c3 -10 9 -15 12 -12 3 3 0 11 -7 18 -10 9 -11 8 -5 -6z"/>
<path d="M6800 2245 c0 -10 -6 -12 -17 -8 -16 6 -17 5 -3 -12 14 -17 13 -18
-4 -11 -20 7 -20 6 -1 -14 10 -11 25 -18 32 -16 7 3 13 -1 13 -10 0 -8 -4 -13
-8 -10 -5 3 -9 -1 -9 -8 0 -8 6 -12 14 -9 7 3 13 11 13 19 0 8 7 11 18 8 9 -2
7 1 -6 7 -13 7 -21 18 -18 26 3 7 0 12 -7 10 -7 -1 -11 7 -9 21 2 12 1 22 -2
22 -3 0 -6 -7 -6 -15z m10 -45 c0 -5 -4 -10 -10 -10 -5 0 -10 5 -10 10 0 6 5
10 10 10 6 0 10 -4 10 -10z"/>
<path d="M6884 2249 c-3 -6 -2 -15 3 -20 5 -5 9 -1 9 11 0 23 -2 24 -12 9z"/>
<path d="M6910 2230 c0 -5 5 -10 11 -10 5 0 7 5 4 10 -3 6 -8 10 -11 10 -2 0
-4 -4 -4 -10z"/>
<path d="M6705 2209 c-4 -6 -5 -12 -2 -15 2 -3 7 2 10 11 7 17 1 20 -8 4z"/>
<path d="M6850 2200 c0 -5 7 -7 15 -4 8 4 15 8 15 10 0 2 -7 4 -15 4 -8 0 -15
-4 -15 -10z"/>
<path d="M6927 2199 c7 -7 15 -10 18 -7 3 3 -2 9 -12 12 -14 6 -15 5 -6 -5z"/>
<path d="M6860 2146 c7 -7 13 -7 20 0 6 6 3 10 -10 10 -13 0 -16 -4 -10 -10z"/>
<path d="M6748 2112 c3 -9 1 -13 -5 -9 -5 3 -10 0 -10 -8 0 -10 4 -12 12 -5 7
5 15 7 18 4 3 -4 5 2 4 13 0 11 -6 20 -13 20 -7 0 -10 -7 -6 -15z"/>
<path d="M6615 2045 c11 -8 26 -13 33 -10 8 3 18 5 23 5 6 0 7 5 4 10 -5 8
-11 7 -20 0 -10 -8 -20 -8 -37 0 -22 11 -22 11 -3 -5z"/>
<path d="M6479 2011 c-9 -9 -14 -22 -12 -28 7 -19 21 -16 19 5 0 10 6 17 16
17 22 0 29 17 8 20 -8 1 -22 -5 -31 -14z"/>
<path d="M3720 3096 c0 -2 8 -10 18 -17 15 -13 16 -12 3 4 -13 16 -21 21 -21
13z"/>
<path d="M3870 3066 c0 -2 8 -10 18 -17 15 -13 16 -12 3 4 -13 16 -21 21 -21
13z"/>
<path d="M7260 3421 c0 -6 4 -13 10 -16 6 -3 7 1 4 9 -7 18 -14 21 -14 7z"/>
<path d="M3860 2840 c0 -5 7 -10 16 -10 8 0 12 5 9 10 -3 6 -10 10 -16 10 -5
0 -9 -4 -9 -10z"/>
<path d="M7097 2798 c-4 -11 4 -14 32 -13 20 0 35 4 34 8 -3 7 -8 8 -18 6 -19
-5 -31 -3 -36 4 -3 5 -9 2 -12 -5z"/>
<path d="M4095 2880 c-3 -6 1 -7 9 -4 18 7 21 14 7 14 -6 0 -13 -4 -16 -10z"/>
<path d="M4685 2680 c-3 -6 1 -7 9 -4 18 7 21 14 7 14 -6 0 -13 -4 -16 -10z"/>
<path d="M5900 2720 c-9 -6 -10 -10 -3 -10 6 0 15 5 18 10 8 12 4 12 -15 0z"/>
<path d="M5848 2703 c7 -3 16 -2 19 1 4 3 -2 6 -13 5 -11 0 -14 -3 -6 -6z"/>
<path d="M5243 2365 c0 -8 4 -12 9 -9 5 3 6 10 3 15 -9 13 -12 11 -12 -6z"/>
<path d="M5263 2285 c0 -8 4 -12 9 -9 5 3 6 10 3 15 -9 13 -12 11 -12 -6z"/>
<path d="M5224 2144 c-18 -14 -18 -14 6 -3 31 14 36 19 24 19 -6 0 -19 -7 -30
-16z"/>
<path d="M3950 2445 c7 -8 17 -15 22 -15 5 0 3 7 -6 15 -8 8 -18 15 -22 15 -3
0 -1 -7 6 -15z"/>
<path d="M4319 2343 c-12 -16 -12 -17 2 -6 9 7 20 9 24 5 5 -4 5 -1 1 6 -9 16
-11 15 -27 -5z"/>
<path d="M4267 2279 c5 -5 24 -14 43 -19 43 -12 30 0 -16 16 -20 7 -32 8 -27
3z"/>
<path d="M4360 2250 c0 -5 5 -10 10 -10 6 0 10 5 10 10 0 6 -4 10 -10 10 -5 0
-10 -4 -10 -10z"/>
<path d="M4400 2239 c0 -5 4 -9 9 -9 5 0 16 -3 25 -6 9 -3 16 -2 16 4 0 5 -11
12 -25 14 -14 3 -25 1 -25 -3z"/>
<path d="M4935 2221 c-3 -5 -2 -12 3 -15 5 -3 9 1 9 9 0 17 -3 19 -12 6z"/>
<path d="M5675 2230 c-4 -6 -11 -7 -17 -4 -7 4 -8 2 -4 -5 6 -9 11 -9 22 0 14
11 18 19 10 19 -3 0 -8 -5 -11 -10z"/>
<path d="M5575 2212 c8 -9 55 -11 55 -3 0 4 -13 7 -30 7 -16 0 -28 -2 -25 -4z"/>
<path d="M5696 2212 c-3 -5 1 -9 9 -9 8 0 12 4 9 9 -3 4 -7 8 -9 8 -2 0 -6 -4
-9 -8z"/>
<path d="M5653 2197 c13 -11 15 -16 5 -20 -7 -2 -10 -7 -7 -11 3 -4 12 0 18 8
10 12 8 17 -11 26 -21 10 -21 10 -5 -3z"/>
<path d="M5741 2177 c-13 -21 -12 -21 5 -5 10 10 16 20 13 22 -3 3 -11 -5 -18
-17z"/>
<path d="M5574 2177 c3 -10 6 -24 7 -30 0 -7 5 -1 10 12 5 13 7 26 4 29 -3 3
-5 -1 -5 -9 0 -12 -2 -11 -11 1 -9 12 -10 12 -5 -3z"/>
<path d="M5696 2178 c3 -5 10 -6 15 -3 13 9 11 12 -6 12 -8 0 -12 -4 -9 -9z"/>
<path d="M5806 2176 c3 -9 13 -16 22 -16 8 0 13 1 11 3 -2 1 -12 9 -22 16 -15
12 -17 12 -11 -3z"/>
<path d="M6167 2004 c-4 -4 -7 -14 -7 -23 0 -11 3 -12 11 -4 6 6 10 16 7 23
-2 6 -7 8 -11 4z"/>
<path d="M6310 1980 c0 -5 5 -10 11 -10 5 0 7 5 4 10 -3 6 -8 10 -11 10 -2 0
-4 -4 -4 -10z"/>
<path d="M5944 1918 c3 -9 0 -19 -7 -21 -7 -2 -9 -8 -4 -12 15 -16 30 12 17
32 -9 14 -10 15 -6 1z"/>
<path d="M5973 1919 c3 -9 0 -22 -6 -28 -6 -6 -7 -14 -2 -18 4 -5 10 -2 12 5
3 6 9 9 15 6 5 -4 4 4 -2 17 -16 30 -25 39 -17 18z"/>
<path d="M5480 1870 c0 -13 11 -13 30 0 12 8 11 10 -7 10 -13 0 -23 -4 -23
-10z"/>
<path d="M5904 1866 c-5 -6 -14 -18 -19 -26 -7 -13 -6 -13 7 -2 14 11 20 10
38 -8 20 -20 40 -20 40 2 0 5 -7 8 -15 4 -8 -3 -15 -1 -15 3 0 5 5 11 11 13 6
2 1 9 -12 15 -18 7 -27 7 -35 -1z m33 -12 c-3 -3 -12 -4 -19 -1 -8 3 -5 6 6 6
11 1 17 -2 13 -5z"/>
<path d="M5981 1841 c12 -18 49 -18 49 -1 0 5 -9 6 -20 3 -11 -3 -20 0 -20 6
0 6 -5 11 -10 11 -6 0 -6 -7 1 -19z"/>
<path d="M5683 1787 c0 -8 6 -14 14 -14 9 0 10 4 2 14 -6 7 -12 13 -14 13 -1
0 -2 -6 -2 -13z"/>
<path d="M5827 1869 c4 -13 8 -18 11 -10 2 7 -1 18 -6 23 -8 8 -9 4 -5 -13z"/>
<path d="M5270 1840 c-8 -5 -12 -12 -9 -15 4 -3 12 1 19 10 14 17 11 19 -10 5z"/>
<path d="M5285 1820 c-3 -5 -1 -10 4 -10 6 0 11 5 11 10 0 6 -2 10 -4 10 -3 0
-8 -4 -11 -10z"/>
<path d="M5273 1793 c-7 -2 -13 -9 -13 -15 0 -7 5 -7 13 1 8 6 18 7 22 3 5 -4
5 -1 1 6 -4 6 -8 12 -9 11 -1 0 -8 -3 -14 -6z"/>
<path d="M5284 1762 c3 -6 2 -13 -4 -17 -5 -3 -10 -1 -10 4 0 6 -7 11 -15 11
-8 0 -15 -7 -15 -15 0 -9 6 -12 15 -9 8 4 15 1 15 -5 0 -10 -29 -16 -53 -12
-4 1 0 -10 9 -24 18 -28 26 -33 18 -11 -3 8 3 19 14 25 14 7 19 7 19 -4 0 -7
-7 -11 -15 -7 -10 4 -13 1 -8 -7 12 -19 31 -7 31 20 1 13 4 29 8 36 4 6 2 15
-4 19 -7 4 -9 3 -5 -4z"/>
<path d="M5280 1669 c0 -5 -5 -7 -12 -3 -7 5 -8 3 -3 -6 6 -10 4 -12 -8 -7
-10 3 -17 3 -17 -2 0 -5 9 -11 20 -14 11 -3 20 0 20 6 0 8 4 7 9 -2 6 -9 9 -5
9 13 0 14 -4 26 -9 26 -5 0 -9 -5 -9 -11z"/>
<path d="M5216 1655 c-9 -23 -8 -25 9 -25 8 0 15 -4 15 -10 0 -5 7 -10 16 -10
8 0 13 -4 9 -10 -3 -5 -13 -6 -23 -3 -16 7 -16 6 0 -10 23 -23 13 -50 -16 -42
-17 5 -18 4 -6 -4 13 -10 13 -12 0 -21 -9 -6 -10 -10 -3 -10 6 0 20 -3 30 -6
15 -5 15 -4 3 5 -13 9 -13 12 3 28 17 17 18 17 12 -2 l-7 -20 17 20 c9 11 21
29 27 39 8 16 7 18 -6 13 -8 -3 -18 -2 -21 3 -4 6 1 10 9 10 9 0 16 5 16 10 0
6 -3 9 -7 9 -5 -1 -11 0 -15 1 -5 1 -13 3 -20 4 -7 0 -18 11 -24 24 -10 20
-12 21 -18 7z m70 -92 c-7 -7 -26 7 -26 19 0 6 6 6 15 -2 9 -7 13 -15 11 -17z"/>
<path d="M5210 1569 c0 -5 5 -7 10 -4 6 3 10 8 10 11 0 2 -4 4 -10 4 -5 0 -10
-5 -10 -11z"/>
<path d="M5287 1520 c-3 -11 -1 -23 4 -26 5 -3 9 6 9 20 0 31 -6 34 -13 6z"/>
</g>
</svg>
